<?xml version="1.0" encoding="UTF-8"?>
<svg xmlns="http://www.w3.org/2000/svg" xmlns:xlink="http://www.w3.org/1999/xlink" width="150px" height="150px" viewBox="0 0 125 125" version="1.1">
<defs>
<filter id="alpha" filterUnits="objectBoundingBox" x="0%" y="0%" width="100%" height="100%">
  <feColorMatrix type="matrix" in="SourceGraphic" values="0 0 0 0 1 0 0 0 0 1 0 0 0 0 1 0 0 0 1 0"/>
</filter>
<mask id="mask0">
  <g filter="url(#alpha)">
<rect x="0" y="0" width="125" height="125" style="fill:rgb(0%,0%,0%);fill-opacity:0.301961;stroke:none;"/>
  </g>
</mask>
<clipPath id="clip1">
  <rect x="0" y="0" width="125" height="125"/>
</clipPath>
<g id="surface5" clip-path="url(#clip1)">
<path style=" stroke:none;fill-rule:nonzero;fill:rgb(0%,15.686275%,47.843137%);fill-opacity:1;" d="M 50.25 36.40625 C 50.25 36.59375 50.136719 36.765625 49.960938 36.835938 C 49.785156 36.910156 49.585938 36.867188 49.449219 36.734375 C 49.316406 36.601562 49.277344 36.398438 49.351562 36.222656 C 49.425781 36.050781 49.59375 35.9375 49.785156 35.9375 C 49.910156 35.9375 50.027344 35.988281 50.113281 36.074219 C 50.203125 36.164062 50.25 36.28125 50.25 36.40625 Z M 50.25 36.40625 "/>
<path style=" stroke:none;fill-rule:nonzero;fill:rgb(0%,15.686275%,47.843137%);fill-opacity:1;" d="M 18.574219 54.03125 C 18.574219 54.214844 18.425781 54.363281 18.242188 54.363281 C 18.058594 54.363281 17.914062 54.214844 17.914062 54.03125 C 17.914062 53.851562 18.058594 53.703125 18.242188 53.703125 C 18.425781 53.703125 18.574219 53.851562 18.574219 54.03125 Z M 18.574219 54.03125 "/>
<path style=" stroke:none;fill-rule:nonzero;fill:rgb(0%,15.686275%,47.843137%);fill-opacity:1;" d="M 73.234375 102.082031 C 73.234375 102.34375 73.023438 102.554688 72.761719 102.554688 C 72.5 102.554688 72.289062 102.34375 72.289062 102.082031 C 72.289062 101.820312 72.5 101.609375 72.761719 101.609375 C 73.023438 101.609375 73.234375 101.820312 73.234375 102.082031 Z M 73.234375 102.082031 "/>
<path style=" stroke:none;fill-rule:nonzero;fill:rgb(0%,15.686275%,47.843137%);fill-opacity:1;" d="M 84.453125 83 C 84.453125 83.183594 84.308594 83.328125 84.125 83.328125 C 83.941406 83.328125 83.796875 83.183594 83.796875 83 C 83.796875 82.816406 83.941406 82.671875 84.125 82.671875 C 84.308594 82.671875 84.453125 82.816406 84.453125 83 Z M 84.453125 83 "/>
<path style=" stroke:none;fill-rule:nonzero;fill:rgb(0%,15.686275%,47.843137%);fill-opacity:1;" d="M 106.042969 23.90625 C 106.042969 24.085938 105.894531 24.234375 105.710938 24.234375 C 105.53125 24.234375 105.382812 24.085938 105.382812 23.90625 C 105.382812 23.722656 105.53125 23.574219 105.710938 23.574219 C 105.894531 23.574219 106.042969 23.722656 106.042969 23.90625 Z M 106.042969 23.90625 "/>
<path style=" stroke:none;fill-rule:nonzero;fill:rgb(0%,15.686275%,47.843137%);fill-opacity:1;" d="M 43.1875 17.25 C 43.1875 17.433594 43.039062 17.578125 42.859375 17.578125 C 42.675781 17.578125 42.527344 17.433594 42.527344 17.25 C 42.527344 17.066406 42.675781 16.921875 42.859375 16.921875 C 43.039062 16.921875 43.1875 17.066406 43.1875 17.25 Z M 43.1875 17.25 "/>
<path style=" stroke:none;fill-rule:nonzero;fill:rgb(0%,15.686275%,47.843137%);fill-opacity:1;" d="M 69.753906 34.234375 C 69.753906 34.417969 69.605469 34.566406 69.425781 34.566406 C 69.242188 34.566406 69.09375 34.417969 69.09375 34.234375 C 69.09375 34.054688 69.242188 33.90625 69.425781 33.90625 C 69.605469 33.90625 69.753906 34.054688 69.753906 34.234375 Z M 69.753906 34.234375 "/>
</g>
<mask id="mask1">
  <g filter="url(#alpha)">
<rect x="0" y="0" width="125" height="125" style="fill:rgb(0%,0%,0%);fill-opacity:0.701961;stroke:none;"/>
  </g>
</mask>
<clipPath id="clip2">
  <rect x="0" y="0" width="125" height="125"/>
</clipPath>
<g id="surface8" clip-path="url(#clip2)">
<path style=" stroke:none;fill-rule:nonzero;fill:rgb(100%,100%,100%);fill-opacity:1;" d="M 40.785156 29.089844 C 40.785156 32.113281 38.332031 34.566406 35.308594 34.566406 C 32.28125 34.566406 29.828125 32.113281 29.828125 29.089844 C 29.828125 26.066406 32.28125 23.613281 35.308594 23.613281 C 38.332031 23.613281 40.785156 26.066406 40.785156 29.089844 Z M 40.785156 29.089844 "/>
</g>
<mask id="mask2">
  <g filter="url(#alpha)">
<rect x="0" y="0" width="125" height="125" style="fill:rgb(0%,0%,0%);fill-opacity:0.2;stroke:none;"/>
  </g>
</mask>
<clipPath id="clip3">
  <rect x="0" y="0" width="125" height="125"/>
</clipPath>
<g id="surface11" clip-path="url(#clip3)">
<path style=" stroke:none;fill-rule:nonzero;fill:rgb(0%,15.686275%,47.843137%);fill-opacity:1;" d="M 33.421875 24.957031 C 32.675781 24.957031 31.933594 25.105469 31.25 25.398438 C 29.515625 27.308594 29.34375 30.167969 30.839844 32.269531 C 32.339844 34.371094 35.097656 35.140625 37.46875 34.121094 C 38.925781 32.515625 39.296875 30.203125 38.417969 28.222656 C 37.542969 26.238281 35.578125 24.960938 33.410156 24.960938 Z M 33.421875 24.957031 "/>
</g>
<mask id="mask3">
  <g filter="url(#alpha)">
<rect x="0" y="0" width="125" height="125" style="fill:rgb(0%,0%,0%);fill-opacity:0.2;stroke:none;"/>
  </g>
</mask>
<clipPath id="clip4">
  <rect x="0" y="0" width="125" height="125"/>
</clipPath>
<g id="surface14" clip-path="url(#clip4)">
<path style=" stroke:none;fill-rule:nonzero;fill:rgb(0%,15.686275%,47.843137%);fill-opacity:1;" d="M 32.875 26.40625 C 32.875 26.679688 32.652344 26.90625 32.375 26.90625 C 32.097656 26.90625 31.875 26.679688 31.875 26.40625 C 31.875 26.128906 32.097656 25.90625 32.375 25.90625 C 32.652344 25.90625 32.875 26.128906 32.875 26.40625 Z M 32.875 26.40625 "/>
</g>
<mask id="mask4">
  <g filter="url(#alpha)">
<rect x="0" y="0" width="125" height="125" style="fill:rgb(0%,0%,0%);fill-opacity:0.2;stroke:none;"/>
  </g>
</mask>
<clipPath id="clip5">
  <rect x="0" y="0" width="125" height="125"/>
</clipPath>
<g id="surface17" clip-path="url(#clip5)">
<path style=" stroke:none;fill-rule:nonzero;fill:rgb(0%,15.686275%,47.843137%);fill-opacity:1;" d="M 38.765625 25.90625 C 38.765625 26.179688 38.542969 26.40625 38.265625 26.40625 C 37.988281 26.40625 37.765625 26.179688 37.765625 25.90625 C 37.765625 25.628906 37.988281 25.40625 38.265625 25.40625 C 38.542969 25.40625 38.765625 25.628906 38.765625 25.90625 Z M 38.765625 25.90625 "/>
</g>
<mask id="mask5">
  <g filter="url(#alpha)">
<rect x="0" y="0" width="125" height="125" style="fill:rgb(0%,0%,0%);fill-opacity:0.2;stroke:none;"/>
  </g>
</mask>
<clipPath id="clip6">
  <rect x="0" y="0" width="125" height="125"/>
</clipPath>
<g id="surface20" clip-path="url(#clip6)">
<path style=" stroke:none;fill-rule:nonzero;fill:rgb(0%,15.686275%,47.843137%);fill-opacity:1;" d="M 37.765625 29.476562 C 37.765625 29.929688 37.398438 30.296875 36.945312 30.296875 C 36.492188 30.296875 36.125 29.929688 36.125 29.476562 C 36.125 29.023438 36.492188 28.65625 36.945312 28.65625 C 37.398438 28.65625 37.765625 29.023438 37.765625 29.476562 Z M 37.765625 29.476562 "/>
</g>
<mask id="mask6">
  <g filter="url(#alpha)">
<rect x="0" y="0" width="125" height="125" style="fill:rgb(0%,0%,0%);fill-opacity:0.2;stroke:none;"/>
  </g>
</mask>
<clipPath id="clip7">
  <rect x="0" y="0" width="125" height="125"/>
</clipPath>
<g id="surface23" clip-path="url(#clip7)">
<path style=" stroke:none;fill-rule:nonzero;fill:rgb(0%,15.686275%,47.843137%);fill-opacity:1;" d="M 35.160156 31.8125 C 35.160156 32.417969 34.667969 32.90625 34.066406 32.90625 C 33.460938 32.90625 32.96875 32.417969 32.96875 31.8125 C 32.96875 31.207031 33.460938 30.71875 34.066406 30.71875 C 34.667969 30.71875 35.160156 31.207031 35.160156 31.8125 Z M 35.160156 31.8125 "/>
</g>
<mask id="mask7">
  <g filter="url(#alpha)">
<rect x="0" y="0" width="125" height="125" style="fill:rgb(0%,0%,0%);fill-opacity:0.301961;stroke:none;"/>
  </g>
</mask>
<clipPath id="clip8">
  <rect x="0" y="0" width="125" height="125"/>
</clipPath>
<g id="surface26" clip-path="url(#clip8)">
<path style=" stroke:none;fill-rule:nonzero;fill:rgb(100%,100%,100%);fill-opacity:1;" d="M 96.648438 89.378906 C 99.234375 89.988281 100.835938 92.578125 100.226562 95.160156 C 99.613281 97.746094 97.027344 99.347656 94.441406 98.734375 C 91.859375 98.125 90.257812 95.535156 90.867188 92.953125 C 91.476562 90.367188 94.066406 88.769531 96.648438 89.378906 Z M 96.648438 89.378906 "/>
</g>
<mask id="mask8">
  <g filter="url(#alpha)">
<rect x="0" y="0" width="125" height="125" style="fill:rgb(0%,0%,0%);fill-opacity:0.4;stroke:none;"/>
  </g>
</mask>
<clipPath id="clip9">
  <rect x="0" y="0" width="125" height="125"/>
</clipPath>
<g id="surface29" clip-path="url(#clip9)">
<path style=" stroke:none;fill-rule:nonzero;fill:rgb(0%,15.686275%,47.843137%);fill-opacity:1;" d="M 98.582031 90.335938 C 96.382812 89.671875 94.023438 90.65625 92.949219 92.683594 C 91.875 94.710938 92.382812 97.21875 94.164062 98.664062 C 94.613281 98.800781 95.078125 98.871094 95.546875 98.871094 C 97.582031 98.871094 99.394531 97.589844 100.074219 95.671875 C 100.757812 93.757812 100.160156 91.621094 98.582031 90.335938 Z M 98.582031 90.335938 "/>
</g>
<mask id="mask9">
  <g filter="url(#alpha)">
<rect x="0" y="0" width="125" height="125" style="fill:rgb(0%,0%,0%);fill-opacity:0.2;stroke:none;"/>
  </g>
</mask>
<clipPath id="clip10">
  <rect x="0" y="0" width="125" height="125"/>
</clipPath>
<g id="surface32" clip-path="url(#clip10)">
<path style=" stroke:none;fill-rule:nonzero;fill:rgb(0%,0%,0%);fill-opacity:1;" d="M 98.523438 46.957031 C 91.800781 51.5 83.101562 57.5 80.699219 71.910156 L 80.183594 71.910156 C 82.523438 57.660156 90.90625 51.515625 97.632812 46.957031 Z M 98.523438 46.957031 "/>
</g>
<mask id="mask10">
  <g filter="url(#alpha)">
<rect x="0" y="0" width="125" height="125" style="fill:rgb(0%,0%,0%);fill-opacity:0.2;stroke:none;"/>
  </g>
</mask>
<clipPath id="clip11">
  <rect x="0" y="0" width="125" height="125"/>
</clipPath>
<g id="surface35" clip-path="url(#clip11)">
<path style=" stroke:none;fill-rule:nonzero;fill:rgb(100%,100%,100%);fill-opacity:1;" d="M 63.75 92.066406 C 59.5 92.066406 55.296875 90.148438 53.25 87.019531 C 51.988281 85.085938 50.519531 81.03125 54.890625 75.625 L 55.277344 75.941406 C 52.1875 79.765625 51.617188 83.601562 53.671875 86.746094 C 56.171875 90.574219 62.066406 92.496094 67.101562 91.128906 C 72.261719 89.726562 75.390625 85.238281 75.691406 78.824219 C 76.726562 56.871094 88.386719 50.109375 96.902344 45.171875 C 102.195312 42.101562 106.015625 39.886719 105.175781 35.210938 C 105.058594 34.5625 104.800781 34.113281 104.386719 33.839844 C 103.296875 33.121094 101.171875 33.621094 98.710938 34.191406 C 93.886719 35.316406 87.273438 36.859375 83.335938 30.160156 L 83.769531 29.910156 C 87.519531 36.292969 93.664062 34.859375 98.601562 33.710938 C 101.171875 33.113281 103.390625 32.59375 104.660156 33.425781 C 105.199219 33.78125 105.527344 34.335938 105.660156 35.128906 C 106.5625 40.148438 102.410156 42.558594 97.148438 45.609375 C 88.730469 50.488281 77.203125 57.171875 76.183594 78.859375 C 75.871094 85.507812 72.605469 90.160156 67.226562 91.621094 C 66.089844 91.925781 64.921875 92.074219 63.75 92.066406 Z M 63.75 92.066406 "/>
</g>
<mask id="mask11">
  <g filter="url(#alpha)">
<rect x="0" y="0" width="125" height="125" style="fill:rgb(0%,0%,0%);fill-opacity:0.301961;stroke:none;"/>
  </g>
</mask>
<clipPath id="clip12">
  <rect x="0" y="0" width="125" height="125"/>
</clipPath>
<g id="surface38" clip-path="url(#clip12)">
<path style=" stroke:none;fill-rule:nonzero;fill:rgb(100%,100%,100%);fill-opacity:1;" d="M 78.191406 24.25 C 79.34375 24.257812 80.488281 24.4375 81.585938 24.78125 C 81.585938 24.78125 84.335938 29.476562 84.660156 30.550781 C 84.546875 31.609375 82.757812 33.347656 82.757812 33.347656 Z M 78.191406 24.25 "/>
</g>
<mask id="mask12">
  <g filter="url(#alpha)">
<rect x="0" y="0" width="125" height="125" style="fill:rgb(0%,0%,0%);fill-opacity:0.701961;stroke:none;"/>
  </g>
</mask>
<clipPath id="clip13">
  <rect x="0" y="0" width="125" height="125"/>
</clipPath>
<g id="surface41" clip-path="url(#clip13)">
<path style=" stroke:none;fill-rule:nonzero;fill:rgb(100%,100%,100%);fill-opacity:1;" d="M 86.335938 47.03125 C 85.277344 45.738281 84.308594 44.371094 83.445312 42.9375 C 83.234375 42.574219 83.035156 42.207031 82.847656 41.832031 C 82.738281 41.621094 82.636719 41.40625 82.539062 41.191406 C 82.40625 40.984375 82.304688 40.757812 82.234375 40.519531 C 81.933594 37.351562 83.019531 35.019531 81.984375 32.476562 L 77.863281 34.085938 C 77.863281 34.085938 78.214844 38.617188 79.015625 41.335938 C 79.515625 43.019531 80.636719 44.476562 81.71875 45.824219 C 82.054688 46.242188 82.378906 46.675781 82.71875 47.097656 C 83.054688 47.519531 83.394531 47.863281 83.71875 48.261719 C 84.203125 48.863281 84.363281 49.441406 83.996094 50.148438 L 83.933594 50.261719 C 83.828125 50.449219 84.320312 50.65625 84.628906 50.261719 C 85.128906 49.617188 85.058594 49.65625 85.496094 49.109375 C 85.761719 48.773438 86.0625 48.414062 86.324219 48.109375 C 86.585938 47.796875 86.589844 47.347656 86.335938 47.03125 Z M 86.335938 47.03125 "/>
</g>
<mask id="mask13">
  <g filter="url(#alpha)">
<rect x="0" y="0" width="125" height="125" style="fill:rgb(0%,0%,0%);fill-opacity:0.301961;stroke:none;"/>
  </g>
</mask>
<clipPath id="clip14">
  <rect x="0" y="0" width="125" height="125"/>
</clipPath>
<g id="surface44" clip-path="url(#clip14)">
<path style=" stroke:none;fill-rule:nonzero;fill:rgb(0%,15.686275%,47.843137%);fill-opacity:1;" d="M 85.328125 45.730469 C 84.671875 46.429688 83.949219 47.0625 83.164062 47.609375 C 83.269531 47.730469 83.375 47.859375 83.484375 47.976562 C 84.269531 47.445312 84.984375 46.8125 85.609375 46.097656 Z M 85.328125 45.730469 "/>
</g>
<mask id="mask14">
  <g filter="url(#alpha)">
<rect x="0" y="0" width="125" height="125" style="fill:rgb(0%,0%,0%);fill-opacity:0.301961;stroke:none;"/>
  </g>
</mask>
<clipPath id="clip15">
  <rect x="0" y="0" width="125" height="125"/>
</clipPath>
<g id="surface47" clip-path="url(#clip15)">
<path style=" stroke:none;fill-rule:nonzero;fill:rgb(0%,15.686275%,47.843137%);fill-opacity:1;" d="M 86.335938 47.03125 L 86.304688 46.996094 C 86.113281 47.21875 86 47.496094 85.988281 47.789062 C 85.972656 47.992188 86.003906 48.191406 86.082031 48.378906 L 86.320312 48.09375 C 86.574219 47.789062 86.582031 47.34375 86.335938 47.03125 Z M 86.335938 47.03125 "/>
</g>
<mask id="mask15">
  <g filter="url(#alpha)">
<rect x="0" y="0" width="125" height="125" style="fill:rgb(0%,0%,0%);fill-opacity:0.701961;stroke:none;"/>
  </g>
</mask>
<clipPath id="clip16">
  <rect x="0" y="0" width="125" height="125"/>
</clipPath>
<g id="surface50" clip-path="url(#clip16)">
<path style=" stroke:none;fill-rule:nonzero;fill:rgb(100%,100%,100%);fill-opacity:1;" d="M 77.210938 27.25 C 76.761719 27.917969 76.226562 28.523438 75.617188 29.046875 C 75.277344 29.339844 74.910156 29.589844 74.511719 29.796875 C 74.304688 29.902344 74.089844 29.996094 73.867188 30.070312 L 73.699219 30.125 L 73.523438 30.171875 C 73.453125 30.191406 73.378906 30.203125 73.304688 30.207031 C 73.09375 30.222656 72.882812 30.203125 72.675781 30.148438 C 72.417969 30.078125 72.171875 29.96875 71.941406 29.832031 C 71.757812 29.722656 71.578125 29.605469 71.40625 29.480469 C 71.09375 29.246094 70.792969 28.996094 70.511719 28.730469 C 69.964844 28.210938 69.460938 27.648438 69.011719 27.046875 C 68.832031 26.800781 68.847656 26.46875 69.054688 26.246094 C 69.257812 26.023438 69.59375 25.980469 69.847656 26.140625 L 69.867188 26.140625 C 70.457031 26.515625 71.050781 26.910156 71.632812 27.261719 C 71.925781 27.433594 72.210938 27.609375 72.496094 27.746094 C 72.625 27.8125 72.757812 27.871094 72.890625 27.925781 C 72.976562 27.960938 73.066406 27.984375 73.160156 27.988281 C 73.175781 27.988281 73.160156 27.972656 73.066406 27.976562 C 73.039062 27.972656 73.007812 27.972656 72.980469 27.976562 L 72.925781 27.988281 L 73.007812 27.945312 C 73.117188 27.886719 73.226562 27.820312 73.328125 27.746094 C 73.554688 27.589844 73.761719 27.414062 73.953125 27.21875 C 74.390625 26.761719 74.800781 26.277344 75.179688 25.769531 C 75.609375 25.289062 76.335938 25.214844 76.855469 25.597656 C 77.375 25.984375 77.515625 26.699219 77.179688 27.253906 Z M 77.210938 27.25 "/>
</g>
<mask id="mask16">
  <g filter="url(#alpha)">
<rect x="0" y="0" width="125" height="125" style="fill:rgb(0%,0%,0%);fill-opacity:0.701961;stroke:none;"/>
  </g>
</mask>
<clipPath id="clip17">
  <rect x="0" y="0" width="125" height="125"/>
</clipPath>
<g id="surface53" clip-path="url(#clip17)">
<path style=" stroke:none;fill-rule:nonzero;fill:rgb(100%,100%,100%);fill-opacity:1;" d="M 68.074219 25.605469 L 68.363281 26.105469 C 68.363281 26.105469 68.585938 26.761719 69.035156 26.878906 L 70.25 26.488281 L 70.1875 26.386719 C 70.03125 26.148438 70.050781 25.691406 70.101562 25.3125 C 70.15625 24.933594 69.960938 24.921875 69.816406 25.015625 C 69.710938 25.132812 69.640625 25.273438 69.605469 25.425781 C 69.546875 25.34375 69.480469 25.265625 69.40625 25.195312 L 69.039062 24.824219 C 68.875 24.667969 68.621094 24.660156 68.453125 24.808594 L 68.152344 25.078125 C 68.007812 25.214844 67.972656 25.433594 68.074219 25.605469 Z M 68.074219 25.605469 "/>
</g>
<mask id="mask17">
  <g filter="url(#alpha)">
<rect x="0" y="0" width="125" height="125" style="fill:rgb(0%,0%,0%);fill-opacity:0.8;stroke:none;"/>
  </g>
</mask>
<clipPath id="clip18">
  <rect x="0" y="0" width="125" height="125"/>
</clipPath>
<g id="surface56" clip-path="url(#clip18)">
<path style=" stroke:none;fill-rule:nonzero;fill:rgb(100%,100%,100%);fill-opacity:1;" d="M 79.417969 23.804688 C 78.070312 24.164062 76.777344 24.707031 75.582031 25.421875 C 75.199219 25.660156 75.007812 26.113281 75.097656 26.554688 C 75.578125 28.914062 76.675781 32.074219 77.863281 34.085938 L 83.390625 31.800781 C 83.425781 30.824219 82.085938 27.671875 80.71875 24.621094 C 80.472656 24.074219 80 23.664062 79.417969 23.804688 Z M 79.417969 23.804688 "/>
</g>
<mask id="mask18">
  <g filter="url(#alpha)">
<rect x="0" y="0" width="125" height="125" style="fill:rgb(0%,0%,0%);fill-opacity:0.301961;stroke:none;"/>
  </g>
</mask>
<clipPath id="clip19">
  <rect x="0" y="0" width="125" height="125"/>
</clipPath>
<g id="surface59" clip-path="url(#clip19)">
<path style=" stroke:none;fill-rule:nonzero;fill:rgb(0%,15.686275%,47.843137%);fill-opacity:1;" d="M 81.574219 26.550781 L 80.476562 26.183594 C 80.726562 26.828125 81.609375 27.640625 82.226562 28.117188 C 82.027344 27.617188 81.804688 27.09375 81.574219 26.550781 Z M 81.574219 26.550781 "/>
</g>
<mask id="mask19">
  <g filter="url(#alpha)">
<rect x="0" y="0" width="125" height="125" style="fill:rgb(0%,0%,0%);fill-opacity:0.8;stroke:none;"/>
  </g>
</mask>
<clipPath id="clip20">
  <rect x="0" y="0" width="125" height="125"/>
</clipPath>
<g id="surface62" clip-path="url(#clip20)">
<path style=" stroke:none;fill-rule:nonzero;fill:rgb(100%,100%,100%);fill-opacity:1;" d="M 79.054688 21.328125 C 78.597656 20.460938 77.609375 20.023438 76.425781 20.121094 C 75.425781 20.203125 74.539062 21.226562 74.644531 21.773438 C 74.75 22.324219 75.589844 22.558594 75.75 22.75 L 75.058594 23.25 C 74.890625 23.371094 74.78125 23.550781 74.753906 23.753906 C 74.726562 23.957031 74.78125 24.160156 74.90625 24.324219 C 75.199219 24.691406 75.585938 25.074219 75.808594 25.351562 C 77.722656 25.300781 79.140625 24.574219 79.652344 23.871094 C 79.460938 22.980469 79.5 22.195312 79.054688 21.328125 Z M 79.054688 21.328125 "/>
</g>
<mask id="mask20">
  <g filter="url(#alpha)">
<rect x="0" y="0" width="125" height="125" style="fill:rgb(0%,0%,0%);fill-opacity:0.8;stroke:none;"/>
  </g>
</mask>
<clipPath id="clip21">
  <rect x="0" y="0" width="125" height="125"/>
</clipPath>
<g id="surface65" clip-path="url(#clip21)">
<path style=" stroke:none;fill-rule:nonzero;fill:rgb(100%,100%,100%);fill-opacity:1;" d="M 94.347656 44.398438 C 94.320312 43.578125 94.28125 43.648438 94.261719 42.957031 C 94.246094 42.53125 94.242188 42.058594 94.238281 41.652344 C 94.238281 41.253906 93.957031 40.910156 93.566406 40.832031 C 93.234375 40.765625 92.902344 40.703125 92.566406 40.632812 C 92.132812 40.539062 91.703125 40.441406 91.28125 40.316406 C 90.953125 40.222656 90.628906 40.117188 90.304688 40 C 89.984375 39.882812 89.621094 39.75 89.285156 39.59375 C 88.890625 39.425781 88.5 39.246094 88.113281 39.058594 C 87.683594 38.855469 87.253906 38.640625 86.828125 38.421875 C 85.183594 35.699219 85.148438 33.90625 83.382812 31.800781 L 79.59375 33.515625 C 79.59375 33.515625 82.378906 38.453125 84.273438 40.550781 C 85.363281 41.753906 87.078125 42.300781 88.605469 42.695312 C 89.707031 42.976562 90.824219 43.195312 91.941406 43.402344 C 92.378906 43.484375 92.851562 43.511719 93.226562 43.773438 C 93.503906 43.984375 93.691406 44.292969 93.761719 44.636719 C 93.777344 44.703125 93.792969 44.773438 93.804688 44.84375 C 93.851562 45.054688 94.363281 44.894531 94.347656 44.398438 Z M 94.347656 44.398438 "/>
</g>
<mask id="mask21">
  <g filter="url(#alpha)">
<rect x="0" y="0" width="125" height="125" style="fill:rgb(0%,0%,0%);fill-opacity:0.301961;stroke:none;"/>
  </g>
</mask>
<clipPath id="clip22">
  <rect x="0" y="0" width="125" height="125"/>
</clipPath>
<g id="surface68" clip-path="url(#clip22)">
<path style=" stroke:none;fill-rule:nonzero;fill:rgb(0%,15.686275%,47.843137%);fill-opacity:1;" d="M 92.425781 40.601562 C 92.273438 40.566406 92.125 40.535156 91.972656 40.496094 C 91.984375 41.363281 91.578125 42.851562 91.433594 43.304688 L 91.90625 43.394531 C 92.21875 42.496094 92.394531 41.550781 92.425781 40.601562 Z M 92.425781 40.601562 "/>
</g>
<mask id="mask22">
  <g filter="url(#alpha)">
<rect x="0" y="0" width="125" height="125" style="fill:rgb(0%,0%,0%);fill-opacity:0.301961;stroke:none;"/>
  </g>
</mask>
<clipPath id="clip23">
  <rect x="0" y="0" width="125" height="125"/>
</clipPath>
<g id="surface71" clip-path="url(#clip23)">
<path style=" stroke:none;fill-rule:nonzero;fill:rgb(0%,15.686275%,47.843137%);fill-opacity:1;" d="M 94.25 41.652344 C 94.25 41.253906 93.96875 40.910156 93.578125 40.832031 L 93.328125 40.785156 C 93.367188 41.070312 93.511719 41.328125 93.734375 41.511719 C 93.878906 41.640625 94.046875 41.738281 94.234375 41.796875 C 94.25 41.75 94.25 41.699219 94.25 41.652344 Z M 94.25 41.652344 "/>
</g>
<mask id="mask23">
  <g filter="url(#alpha)">
<rect x="0" y="0" width="125" height="125" style="fill:rgb(0%,0%,0%);fill-opacity:0.501961;stroke:none;"/>
  </g>
</mask>
<clipPath id="clip24">
  <rect x="0" y="0" width="125" height="125"/>
</clipPath>
<g id="surface74" clip-path="url(#clip24)">
<path style=" stroke:none;fill-rule:nonzero;fill:rgb(100%,100%,100%);fill-opacity:1;" d="M 77.789062 33.964844 C 77.613281 34.03125 77.933594 34.328125 77.933594 34.328125 C 77.933594 34.328125 81.433594 33.132812 83.558594 31.898438 C 83.570312 31.75 83.507812 31.601562 83.390625 31.503906 C 81.570312 32.429688 79.703125 33.25 77.789062 33.964844 Z M 77.789062 33.964844 "/>
</g>
<mask id="mask24">
  <g filter="url(#alpha)">
<rect x="0" y="0" width="125" height="125" style="fill:rgb(0%,0%,0%);fill-opacity:0.8;stroke:none;"/>
  </g>
</mask>
<clipPath id="clip25">
  <rect x="0" y="0" width="125" height="125"/>
</clipPath>
<g id="surface77" clip-path="url(#clip25)">
<path style=" stroke:none;fill-rule:nonzero;fill:rgb(100%,100%,100%);fill-opacity:1;" d="M 80.363281 23.640625 C 81.054688 23.988281 81.703125 24.359375 82.363281 24.765625 C 82.6875 24.96875 83.007812 25.175781 83.324219 25.402344 C 83.640625 25.628906 83.957031 25.859375 84.273438 26.117188 L 84.390625 26.214844 L 84.539062 26.351562 C 84.628906 26.429688 84.710938 26.511719 84.789062 26.601562 C 84.871094 26.6875 84.9375 26.773438 85.003906 26.851562 C 85.066406 26.925781 85.136719 27.019531 85.195312 27.101562 C 85.429688 27.421875 85.644531 27.753906 85.839844 28.101562 C 86.226562 28.769531 86.5625 29.464844 86.839844 30.1875 C 86.945312 30.46875 86.839844 30.785156 86.585938 30.945312 C 86.328125 31.101562 86 31.0625 85.792969 30.84375 L 85.78125 30.828125 C 85.28125 30.296875 84.796875 29.734375 84.3125 29.210938 C 83.828125 28.691406 83.335938 28.160156 82.925781 27.925781 C 82.359375 27.574219 81.726562 27.222656 81.101562 26.878906 L 79.210938 25.828125 C 78.601562 25.503906 78.367188 24.746094 78.691406 24.136719 C 79.011719 23.527344 79.769531 23.292969 80.378906 23.617188 Z M 80.363281 23.640625 "/>
</g>
<mask id="mask25">
  <g filter="url(#alpha)">
<rect x="0" y="0" width="125" height="125" style="fill:rgb(0%,0%,0%);fill-opacity:0.8;stroke:none;"/>
  </g>
</mask>
<clipPath id="clip26">
  <rect x="0" y="0" width="125" height="125"/>
</clipPath>
<g id="surface80" clip-path="url(#clip26)">
<path style=" stroke:none;fill-rule:nonzero;fill:rgb(100%,100%,100%);fill-opacity:1;" d="M 87.433594 31.433594 L 87.21875 30.902344 C 87.21875 30.902344 87.101562 30.222656 86.679688 30.03125 L 85.429688 30.230469 L 85.472656 30.339844 C 85.585938 30.589844 85.5 31.046875 85.386719 31.414062 C 85.273438 31.777344 85.464844 31.824219 85.625 31.753906 C 85.714844 31.710938 85.800781 31.550781 85.898438 31.378906 C 85.945312 31.464844 85.996094 31.546875 86.054688 31.628906 L 86.363281 32.050781 C 86.496094 32.230469 86.746094 32.28125 86.9375 32.160156 L 87.277344 31.941406 C 87.441406 31.832031 87.503906 31.621094 87.433594 31.433594 Z M 87.433594 31.433594 "/>
</g>
<mask id="mask26">
  <g filter="url(#alpha)">
<rect x="0" y="0" width="125" height="125" style="fill:rgb(0%,0%,0%);fill-opacity:0.301961;stroke:none;"/>
  </g>
</mask>
<clipPath id="clip27">
  <rect x="0" y="0" width="125" height="125"/>
</clipPath>
<g id="surface83" clip-path="url(#clip27)">
<path style=" stroke:none;fill-rule:nonzero;fill:rgb(0%,15.686275%,47.843137%);fill-opacity:1;" d="M 79.308594 26.515625 L 79.003906 26.539062 L 77.132812 31.058594 C 77.234375 31.066406 77.335938 31.058594 77.4375 31.035156 C 77.4375 31.035156 79.878906 30.125 80.613281 29.785156 C 80.121094 28.761719 79.308594 26.515625 79.308594 26.515625 Z M 79.308594 26.515625 "/>
</g>
<mask id="mask27">
  <g filter="url(#alpha)">
<rect x="0" y="0" width="125" height="125" style="fill:rgb(0%,0%,0%);fill-opacity:0.301961;stroke:none;"/>
  </g>
</mask>
<clipPath id="clip28">
  <rect x="0" y="0" width="125" height="125"/>
</clipPath>
<g id="surface86" clip-path="url(#clip28)">
<path style=" stroke:none;fill-rule:nonzero;fill:rgb(0%,15.686275%,47.843137%);fill-opacity:1;" d="M 77.75 28.675781 C 77.648438 29.019531 77.289062 29.210938 76.945312 29.109375 C 76.605469 29.007812 76.410156 28.648438 76.515625 28.308594 C 76.617188 27.964844 76.976562 27.773438 77.316406 27.875 C 77.660156 27.976562 77.851562 28.335938 77.75 28.675781 Z M 77.75 28.675781 "/>
</g>
<mask id="mask28">
  <g filter="url(#alpha)">
<rect x="0" y="0" width="125" height="125" style="fill:rgb(0%,0%,0%);fill-opacity:0.6;stroke:none;"/>
  </g>
</mask>
<clipPath id="clip29">
  <rect x="0" y="0" width="125" height="125"/>
</clipPath>
<g id="surface89" clip-path="url(#clip29)">
<path style=" stroke:none;fill-rule:nonzero;fill:rgb(0%,15.686275%,47.843137%);fill-opacity:1;" d="M 78.226562 27.816406 C 78.207031 27.902344 78.136719 27.96875 78.050781 27.980469 C 77.964844 27.992188 77.878906 27.949219 77.835938 27.871094 C 77.792969 27.796875 77.800781 27.703125 77.855469 27.632812 C 77.914062 27.566406 78.003906 27.539062 78.085938 27.566406 C 78.191406 27.601562 78.253906 27.710938 78.226562 27.816406 Z M 78.226562 27.816406 "/>
</g>
<mask id="mask29">
  <g filter="url(#alpha)">
<rect x="0" y="0" width="125" height="125" style="fill:rgb(0%,0%,0%);fill-opacity:0.6;stroke:none;"/>
  </g>
</mask>
<clipPath id="clip30">
  <rect x="0" y="0" width="125" height="125"/>
</clipPath>
<g id="surface92" clip-path="url(#clip30)">
<path style=" stroke:none;fill-rule:nonzero;fill:rgb(0%,15.686275%,47.843137%);fill-opacity:1;" d="M 78.789062 27.601562 C 78.773438 27.679688 78.710938 27.742188 78.632812 27.761719 C 78.554688 27.785156 78.472656 27.757812 78.417969 27.699219 C 78.367188 27.636719 78.351562 27.550781 78.382812 27.476562 C 78.398438 27.425781 78.433594 27.378906 78.484375 27.351562 C 78.535156 27.328125 78.589844 27.320312 78.644531 27.335938 C 78.757812 27.371094 78.820312 27.488281 78.789062 27.601562 Z M 78.789062 27.601562 "/>
</g>
<mask id="mask30">
  <g filter="url(#alpha)">
<rect x="0" y="0" width="125" height="125" style="fill:rgb(0%,0%,0%);fill-opacity:0.501961;stroke:none;"/>
  </g>
</mask>
<clipPath id="clip31">
  <rect x="0" y="0" width="125" height="125"/>
</clipPath>
<g id="surface95" clip-path="url(#clip31)">
<path style=" stroke:none;fill-rule:nonzero;fill:rgb(0%,15.686275%,47.843137%);fill-opacity:1;" d="M 79.574219 29.546875 L 77.261719 30.460938 L 77.121094 30.003906 L 79.433594 29.09375 Z M 79.574219 29.546875 "/>
</g>
<mask id="mask31">
  <g filter="url(#alpha)">
<rect x="0" y="0" width="125" height="125" style="fill:rgb(0%,0%,0%);fill-opacity:0.2;stroke:none;"/>
  </g>
</mask>
<clipPath id="clip32">
  <rect x="0" y="0" width="125" height="125"/>
</clipPath>
<g id="surface98" clip-path="url(#clip32)">
<path style=" stroke:none;fill-rule:nonzero;fill:rgb(0%,0%,0%);fill-opacity:1;" d="M 66.816406 64.292969 C 66.808594 65.75 66.667969 67.199219 66.394531 68.628906 C 66.101562 69.914062 65.640625 70.855469 65.019531 71.449219 C 64.433594 72.03125 63.640625 72.351562 62.816406 72.34375 C 61.53125 72.34375 60.550781 71.640625 59.875 70.238281 C 59.757812 69.988281 59.65625 69.726562 59.574219 69.460938 C 58.144531 70.691406 56.8125 72.027344 55.59375 73.460938 L 54.265625 75.027344 C 54.980469 75.75 55.804688 76.359375 56.707031 76.824219 C 58.265625 77.628906 60.308594 78.035156 62.835938 78.035156 C 63.28125 78.035156 63.710938 78.023438 64.128906 77.996094 C 65.660156 75.734375 66.925781 73.300781 67.90625 70.746094 L 71.617188 61.066406 Z M 66.816406 64.292969 "/>
</g>
<mask id="mask32">
  <g filter="url(#alpha)">
<rect x="0" y="0" width="125" height="125" style="fill:rgb(0%,0%,0%);fill-opacity:0.6;stroke:none;"/>
  </g>
</mask>
<clipPath id="clip33">
  <rect x="0" y="0" width="125" height="125"/>
</clipPath>
<g id="surface101" clip-path="url(#clip33)">
<path style=" stroke:none;fill-rule:nonzero;fill:rgb(100%,100%,100%);fill-opacity:1;" d="M 65.351562 65.175781 L 70.121094 55.972656 L 60.921875 60.75 C 57.964844 62.28125 55.234375 64.21875 52.808594 66.5 L 37.121094 81.265625 L 44.828125 88.976562 L 59.597656 73.289062 C 61.878906 70.863281 63.816406 68.132812 65.351562 65.175781 Z M 65.351562 65.175781 "/>
</g>
<mask id="mask33">
  <g filter="url(#alpha)">
<rect x="0" y="0" width="125" height="125" style="fill:rgb(0%,0%,0%);fill-opacity:0.301961;stroke:none;"/>
  </g>
</mask>
<clipPath id="clip34">
  <rect x="0" y="0" width="125" height="125"/>
</clipPath>
<g id="surface104" clip-path="url(#clip34)">
<path style=" stroke:none;fill-rule:nonzero;fill:rgb(0%,15.686275%,47.843137%);fill-opacity:1;" d="M 47.4375 86.203125 L 39.890625 78.65625 L 46.070312 72.84375 L 53.253906 80.027344 Z M 47.4375 86.203125 "/>
</g>
<mask id="mask34">
  <g filter="url(#alpha)">
<rect x="0" y="0" width="125" height="125" style="fill:rgb(0%,0%,0%);fill-opacity:0.2;stroke:none;"/>
  </g>
</mask>
<clipPath id="clip35">
  <rect x="0" y="0" width="125" height="125"/>
</clipPath>
<g id="surface107" clip-path="url(#clip35)">
<path style=" stroke:none;fill-rule:nonzero;fill:rgb(100%,100%,100%);fill-opacity:1;" d="M 35.054688 84.40625 C 29.40625 84.863281 27.53125 88.480469 26.890625 93.289062 C 26.566406 95.738281 26.421875 98.222656 24.363281 99.65625 C 24.109375 99.832031 24 100.148438 24.09375 100.441406 C 24.1875 100.734375 24.464844 100.929688 24.773438 100.921875 C 32.359375 100.683594 35.894531 96.972656 36.339844 95.421875 C 36.222656 96.234375 36.015625 97.027344 35.71875 97.789062 C 35.605469 98.066406 35.683594 98.382812 35.910156 98.574219 C 36.136719 98.769531 36.464844 98.792969 36.71875 98.636719 C 38.84375 97.304688 41.515625 94.851562 41.691406 90.867188 C 40.128906 88.648438 35.054688 84.40625 35.054688 84.40625 Z M 35.054688 84.40625 "/>
</g>
</defs>
<g id="surface1">
<path style=" stroke:none;fill-rule:nonzero;fill:rgb(92.156863%,92.156863%,92.156863%);fill-opacity:1;" d="M 59.601562 111.261719 L 11.324219 111.261719 C 10.535156 111.261719 9.898438 110.625 9.898438 109.835938 L 9.898438 15.164062 C 9.90625 14.382812 10.542969 13.75 11.324219 13.75 L 59.601562 13.75 C 60.386719 13.75 61.027344 14.390625 61.027344 15.175781 L 61.027344 109.835938 C 61.027344 110.625 60.386719 111.261719 59.601562 111.261719 Z M 11.324219 13.800781 C 10.570312 13.800781 9.960938 14.410156 9.960938 15.164062 L 9.960938 109.835938 C 9.960938 110.589844 10.570312 111.199219 11.324219 111.199219 L 59.601562 111.199219 C 60.351562 111.199219 60.964844 110.589844 60.964844 109.835938 L 60.964844 15.164062 C 60.964844 14.410156 60.351562 13.800781 59.601562 13.800781 Z M 11.324219 13.800781 "/>
<path style=" stroke:none;fill-rule:nonzero;fill:rgb(92.156863%,92.156863%,92.156863%);fill-opacity:1;" d="M 113.675781 111.261719 L 65.398438 111.261719 C 64.613281 111.261719 63.972656 110.625 63.972656 109.835938 L 63.972656 15.164062 C 63.980469 14.382812 64.617188 13.75 65.398438 13.75 L 113.675781 13.75 C 114.464844 13.75 115.101562 14.390625 115.101562 15.175781 L 115.101562 109.835938 C 115.101562 110.625 114.464844 111.261719 113.675781 111.261719 Z M 65.398438 13.800781 C 64.648438 13.800781 64.035156 14.410156 64.035156 15.164062 L 64.035156 109.835938 C 64.035156 110.589844 64.648438 111.199219 65.398438 111.199219 L 113.675781 111.199219 C 114.429688 111.199219 115.039062 110.589844 115.039062 109.835938 L 115.039062 15.164062 C 115.039062 14.410156 114.429688 13.800781 113.675781 13.800781 Z M 65.398438 13.800781 "/>
<path style=" stroke:none;fill-rule:nonzero;fill:rgb(92.156863%,92.156863%,92.156863%);fill-opacity:1;" d="M 28.261719 42.0625 L 28.667969 42.878906 L 29.574219 43.011719 L 28.917969 43.648438 L 29.074219 44.550781 L 28.261719 44.125 L 27.453125 44.550781 L 27.609375 43.648438 L 26.953125 43.011719 L 27.859375 42.878906 Z M 28.261719 42.0625 "/>
<path style=" stroke:none;fill-rule:nonzero;fill:rgb(96.078431%,96.078431%,96.078431%);fill-opacity:1;" d="M 109.175781 80.621094 L 109.578125 81.441406 L 110.484375 81.574219 L 109.828125 82.207031 L 109.984375 83.109375 L 109.175781 82.683594 L 108.367188 83.109375 L 108.523438 82.207031 L 107.867188 81.574219 L 108.773438 81.441406 Z M 109.175781 80.621094 "/>
<path style=" stroke:none;fill-rule:nonzero;fill:rgb(96.078431%,96.078431%,96.078431%);fill-opacity:1;" d="M 93.148438 104.390625 L 93.554688 105.210938 L 94.457031 105.34375 L 93.800781 105.980469 L 93.957031 106.878906 L 93.148438 106.453125 L 92.34375 106.878906 L 92.496094 105.980469 L 91.84375 105.34375 L 92.746094 105.210938 Z M 93.148438 104.390625 "/>
<path style=" stroke:none;fill-rule:nonzero;fill:rgb(92.156863%,92.156863%,92.156863%);fill-opacity:1;" d="M 56.484375 27.539062 L 56.636719 27.84375 L 56.972656 27.890625 C 57.011719 27.898438 57.042969 27.925781 57.054688 27.960938 C 57.066406 28 57.054688 28.039062 57.027344 28.066406 L 56.777344 28.300781 L 56.835938 28.636719 C 56.839844 28.675781 56.824219 28.714844 56.792969 28.738281 C 56.761719 28.757812 56.722656 28.761719 56.6875 28.746094 L 56.386719 28.585938 L 56.085938 28.746094 C 56.054688 28.761719 56.011719 28.757812 55.980469 28.738281 C 55.949219 28.714844 55.933594 28.675781 55.941406 28.636719 L 55.996094 28.300781 L 55.746094 28.066406 C 55.714844 28.039062 55.707031 27.996094 55.71875 27.960938 C 55.730469 27.921875 55.761719 27.898438 55.800781 27.890625 L 56.136719 27.84375 L 56.289062 27.539062 C 56.300781 27.492188 56.339844 27.460938 56.386719 27.460938 C 56.433594 27.460938 56.472656 27.492188 56.484375 27.539062 Z M 56.484375 27.539062 "/>
<path style=" stroke:none;fill-rule:nonzero;fill:rgb(96.078431%,96.078431%,96.078431%);fill-opacity:1;" d="M 15.195312 100.5 L 15.34375 100.800781 L 15.679688 100.851562 C 15.71875 100.859375 15.75 100.886719 15.761719 100.921875 C 15.777344 100.960938 15.765625 101 15.738281 101.027344 L 15.488281 101.261719 L 15.546875 101.597656 C 15.550781 101.636719 15.535156 101.671875 15.503906 101.695312 C 15.472656 101.71875 15.433594 101.722656 15.398438 101.703125 L 15.097656 101.546875 L 14.796875 101.703125 C 14.761719 101.722656 14.722656 101.71875 14.691406 101.695312 C 14.660156 101.671875 14.644531 101.636719 14.648438 101.597656 L 14.707031 101.261719 L 14.457031 101.027344 C 14.429688 101 14.417969 100.960938 14.429688 100.921875 C 14.441406 100.886719 14.472656 100.859375 14.511719 100.851562 L 14.847656 100.800781 L 15 100.5 C 15.015625 100.457031 15.054688 100.429688 15.097656 100.429688 C 15.140625 100.429688 15.179688 100.457031 15.195312 100.5 Z M 15.195312 100.5 "/>
<path style=" stroke:none;fill-rule:nonzero;fill:rgb(92.156863%,92.156863%,92.156863%);fill-opacity:1;" d="M 21.9375 24.324219 L 22.085938 24.628906 L 22.425781 24.675781 C 22.464844 24.683594 22.496094 24.710938 22.507812 24.746094 C 22.519531 24.785156 22.507812 24.824219 22.480469 24.851562 L 22.230469 25.101562 L 22.289062 25.433594 C 22.296875 25.472656 22.28125 25.511719 22.25 25.535156 C 22.214844 25.558594 22.175781 25.5625 22.140625 25.542969 L 21.839844 25.386719 L 21.539062 25.542969 C 21.503906 25.5625 21.464844 25.558594 21.429688 25.535156 C 21.398438 25.511719 21.382812 25.472656 21.390625 25.433594 L 21.449219 25.101562 L 21.199219 24.851562 C 21.167969 24.824219 21.160156 24.785156 21.171875 24.746094 C 21.183594 24.710938 21.214844 24.683594 21.253906 24.675781 L 21.589844 24.628906 L 21.75 24.324219 C 21.765625 24.289062 21.804688 24.265625 21.84375 24.265625 C 21.882812 24.265625 21.921875 24.289062 21.9375 24.324219 Z M 21.9375 24.324219 "/>
<path style=" stroke:none;fill-rule:nonzero;fill:rgb(92.156863%,92.156863%,92.156863%);fill-opacity:1;" d="M 21.53125 84.578125 C 21.535156 84.714844 21.453125 84.835938 21.328125 84.890625 C 21.203125 84.941406 21.0625 84.914062 20.964844 84.820312 C 20.871094 84.722656 20.839844 84.582031 20.894531 84.457031 C 20.945312 84.332031 21.066406 84.25 21.199219 84.25 C 21.382812 84.25 21.53125 84.398438 21.53125 84.578125 Z M 21.53125 84.578125 "/>
<path style=" stroke:none;fill-rule:nonzero;fill:rgb(92.156863%,92.156863%,92.156863%);fill-opacity:1;" d="M 68.917969 42.972656 C 68.917969 43.105469 68.839844 43.230469 68.714844 43.28125 C 68.589844 43.332031 68.445312 43.304688 68.351562 43.210938 C 68.253906 43.117188 68.226562 42.972656 68.277344 42.847656 C 68.328125 42.722656 68.449219 42.640625 68.585938 42.640625 C 68.671875 42.640625 68.757812 42.675781 68.820312 42.738281 C 68.882812 42.800781 68.917969 42.882812 68.917969 42.972656 Z M 68.917969 42.972656 "/>
<path style=" stroke:none;fill-rule:nonzero;fill:rgb(96.078431%,96.078431%,96.078431%);fill-opacity:1;" d="M 51.675781 24.601562 C 51.675781 24.785156 51.527344 24.933594 51.34375 24.933594 C 51.160156 24.933594 51.011719 24.785156 51.011719 24.601562 C 51.011719 24.417969 51.160156 24.265625 51.34375 24.265625 C 51.527344 24.269531 51.675781 24.417969 51.675781 24.601562 Z M 51.675781 24.601562 "/>
<path style=" stroke:none;fill-rule:nonzero;fill:rgb(94.117647%,94.117647%,94.117647%);fill-opacity:1;" d="M 53.570312 103.425781 C 53.804688 104.414062 53.191406 105.402344 52.203125 105.636719 C 51.214844 105.867188 50.226562 105.257812 49.992188 104.269531 C 49.761719 103.28125 50.371094 102.292969 51.359375 102.058594 C 52.347656 101.824219 53.335938 102.4375 53.570312 103.425781 Z M 53.570312 103.425781 "/>
<path style=" stroke:none;fill-rule:nonzero;fill:rgb(90.196078%,90.196078%,90.196078%);fill-opacity:1;" d="M 51.148438 102.773438 C 50.773438 102.773438 50.40625 102.890625 50.101562 103.113281 C 49.785156 103.84375 49.972656 104.699219 50.574219 105.222656 C 51.171875 105.75 52.042969 105.828125 52.726562 105.421875 C 53.027344 104.863281 53.015625 104.191406 52.691406 103.648438 C 52.367188 103.105469 51.78125 102.773438 51.148438 102.773438 Z M 51.148438 102.773438 "/>
<path style=" stroke:none;fill-rule:nonzero;fill:rgb(0%,15.686275%,47.843137%);fill-opacity:1;" d="M 36.921875 71.910156 L 21.707031 71.910156 L 21.707031 65.042969 L 36.921875 46.957031 L 44.199219 46.957031 L 44.199219 65.433594 L 47.972656 65.433594 L 47.972656 71.910156 L 44.199219 71.910156 L 44.199219 77.53125 L 36.921875 77.53125 Z M 36.921875 65.433594 L 36.921875 55.972656 L 28.878906 65.433594 Z M 36.921875 65.433594 "/>
<path style=" stroke:none;fill-rule:nonzero;fill:rgb(0%,15.686275%,47.843137%);fill-opacity:1;" d="M 50.574219 62.378906 C 50.574219 56.664062 51.601562 52.664062 53.660156 50.378906 C 55.714844 48.09375 58.851562 46.949219 63.0625 46.953125 C 65.085938 46.953125 66.746094 47.203125 68.046875 47.703125 C 69.226562 48.128906 70.308594 48.789062 71.222656 49.648438 C 71.992188 50.386719 72.648438 51.238281 73.160156 52.171875 C 73.667969 53.148438 74.050781 54.183594 74.296875 55.257812 C 74.863281 57.546875 75.144531 59.898438 75.136719 62.257812 C 75.136719 67.710938 74.214844 71.703125 72.371094 74.230469 C 70.523438 76.757812 67.347656 78.023438 62.835938 78.023438 C 60.308594 78.023438 58.261719 77.621094 56.703125 76.816406 C 55.132812 75.996094 53.8125 74.769531 52.871094 73.265625 C 52.148438 72.160156 51.582031 70.648438 51.179688 68.726562 C 50.761719 66.636719 50.558594 64.507812 50.574219 62.378906 Z M 58.859375 62.398438 C 58.859375 66.230469 59.199219 68.84375 59.871094 70.238281 C 60.546875 71.636719 61.527344 72.335938 62.816406 72.34375 C 63.640625 72.351562 64.433594 72.03125 65.019531 71.449219 C 65.644531 70.855469 66.101562 69.914062 66.394531 68.628906 C 66.6875 67.34375 66.835938 65.34375 66.835938 62.628906 C 66.835938 58.640625 66.496094 55.957031 65.820312 54.582031 C 65.144531 53.207031 64.128906 52.519531 62.773438 52.523438 C 61.394531 52.523438 60.394531 53.222656 59.773438 54.625 C 59.15625 56.027344 58.851562 58.617188 58.859375 62.398438 Z M 58.859375 62.398438 "/>
<path style=" stroke:none;fill-rule:nonzero;fill:rgb(0%,15.686275%,47.843137%);fill-opacity:1;" d="M 92.933594 71.910156 L 77.722656 71.910156 L 77.722656 65.042969 L 92.933594 46.957031 L 100.214844 46.957031 L 100.214844 65.433594 L 104 65.433594 L 104 71.910156 L 100.214844 71.910156 L 100.214844 77.53125 L 92.933594 77.53125 Z M 92.933594 65.433594 L 92.933594 55.972656 L 84.898438 65.433594 Z M 92.933594 65.433594 "/>
<use xlink:href="#surface5" mask="url(#mask0)"/>
<path style=" stroke:none;fill-rule:nonzero;fill:rgb(0%,15.686275%,47.843137%);fill-opacity:1;" d="M 40.785156 29.089844 C 40.785156 32.113281 38.332031 34.566406 35.308594 34.566406 C 32.28125 34.566406 29.828125 32.113281 29.828125 29.089844 C 29.828125 26.066406 32.28125 23.613281 35.308594 23.613281 C 38.332031 23.613281 40.785156 26.066406 40.785156 29.089844 Z M 40.785156 29.089844 "/>
<use xlink:href="#surface8" mask="url(#mask1)"/>
<use xlink:href="#surface11" mask="url(#mask2)"/>
<use xlink:href="#surface14" mask="url(#mask3)"/>
<use xlink:href="#surface17" mask="url(#mask4)"/>
<use xlink:href="#surface20" mask="url(#mask5)"/>
<use xlink:href="#surface23" mask="url(#mask6)"/>
<path style=" stroke:none;fill-rule:nonzero;fill:rgb(0%,15.686275%,47.843137%);fill-opacity:1;" d="M 96.648438 89.378906 C 99.234375 89.988281 100.835938 92.578125 100.226562 95.160156 C 99.613281 97.746094 97.027344 99.347656 94.441406 98.734375 C 91.859375 98.125 90.257812 95.535156 90.867188 92.953125 C 91.476562 90.367188 94.066406 88.769531 96.648438 89.378906 Z M 96.648438 89.378906 "/>
<use xlink:href="#surface26" mask="url(#mask7)"/>
<use xlink:href="#surface29" mask="url(#mask8)"/>
<path style=" stroke:none;fill-rule:nonzero;fill:rgb(0%,15.686275%,47.843137%);fill-opacity:1;" d="M 90.957031 95.5 C 85.824219 97.914062 89.652344 99.777344 96.886719 97.175781 C 103.582031 94.769531 106.136719 91.734375 100.136719 92.675781 C 100.457031 93.941406 92.070312 97.207031 90.957031 95.5 Z M 90.957031 95.5 "/>
<use xlink:href="#surface32" mask="url(#mask9)"/>
<path style=" stroke:none;fill-rule:nonzero;fill:rgb(0%,15.686275%,47.843137%);fill-opacity:1;" d="M 63.75 92.066406 C 59.5 92.066406 55.296875 90.148438 53.25 87.019531 C 51.988281 85.085938 50.519531 81.03125 54.890625 75.625 L 55.277344 75.941406 C 52.1875 79.765625 51.617188 83.601562 53.671875 86.746094 C 56.171875 90.574219 62.066406 92.496094 67.101562 91.128906 C 72.261719 89.726562 75.390625 85.238281 75.691406 78.824219 C 76.726562 56.871094 88.386719 50.109375 96.902344 45.171875 C 102.195312 42.101562 106.015625 39.886719 105.175781 35.210938 C 105.058594 34.5625 104.800781 34.113281 104.386719 33.839844 C 103.296875 33.121094 101.171875 33.621094 98.710938 34.191406 C 93.886719 35.316406 87.273438 36.859375 83.335938 30.160156 L 83.769531 29.910156 C 87.519531 36.292969 93.664062 34.859375 98.601562 33.710938 C 101.171875 33.113281 103.390625 32.59375 104.660156 33.425781 C 105.199219 33.78125 105.527344 34.335938 105.660156 35.128906 C 106.5625 40.148438 102.410156 42.558594 97.148438 45.609375 C 88.730469 50.488281 77.203125 57.171875 76.183594 78.859375 C 75.871094 85.507812 72.605469 90.160156 67.226562 91.621094 C 66.089844 91.925781 64.921875 92.074219 63.75 92.066406 Z M 63.75 92.066406 "/>
<use xlink:href="#surface35" mask="url(#mask10)"/>
<path style=" stroke:none;fill-rule:nonzero;fill:rgb(0%,15.686275%,47.843137%);fill-opacity:1;" d="M 78.191406 24.25 C 79.34375 24.257812 80.488281 24.4375 81.585938 24.78125 C 81.585938 24.78125 84.335938 29.476562 84.660156 30.550781 C 84.546875 31.609375 82.757812 33.347656 82.757812 33.347656 Z M 78.191406 24.25 "/>
<use xlink:href="#surface38" mask="url(#mask11)"/>
<path style=" stroke:none;fill-rule:nonzero;fill:rgb(0%,15.686275%,47.843137%);fill-opacity:1;" d="M 86.335938 47.03125 C 85.277344 45.738281 84.308594 44.371094 83.445312 42.9375 C 83.234375 42.574219 83.035156 42.207031 82.847656 41.832031 C 82.738281 41.621094 82.636719 41.40625 82.539062 41.191406 C 82.40625 40.984375 82.304688 40.757812 82.234375 40.519531 C 81.933594 37.351562 83.019531 35.019531 81.984375 32.476562 L 77.863281 34.085938 C 77.863281 34.085938 78.214844 38.617188 79.015625 41.335938 C 79.515625 43.019531 80.636719 44.476562 81.71875 45.824219 C 82.054688 46.242188 82.378906 46.675781 82.71875 47.097656 C 83.054688 47.519531 83.394531 47.863281 83.71875 48.261719 C 84.203125 48.863281 84.363281 49.441406 83.996094 50.148438 L 83.933594 50.261719 C 83.828125 50.449219 84.320312 50.65625 84.628906 50.261719 C 85.128906 49.617188 85.058594 49.65625 85.496094 49.109375 C 85.761719 48.773438 86.0625 48.414062 86.324219 48.109375 C 86.585938 47.796875 86.589844 47.347656 86.335938 47.03125 Z M 86.335938 47.03125 "/>
<use xlink:href="#surface41" mask="url(#mask12)"/>
<use xlink:href="#surface44" mask="url(#mask13)"/>
<use xlink:href="#surface47" mask="url(#mask14)"/>
<path style=" stroke:none;fill-rule:nonzero;fill:rgb(0%,15.686275%,47.843137%);fill-opacity:1;" d="M 77.210938 27.25 C 76.761719 27.917969 76.226562 28.523438 75.617188 29.046875 C 75.277344 29.339844 74.910156 29.589844 74.511719 29.796875 C 74.304688 29.902344 74.089844 29.996094 73.867188 30.070312 L 73.699219 30.125 L 73.523438 30.171875 C 73.453125 30.191406 73.378906 30.203125 73.304688 30.207031 C 73.09375 30.222656 72.882812 30.203125 72.675781 30.148438 C 72.417969 30.078125 72.171875 29.96875 71.941406 29.832031 C 71.757812 29.722656 71.578125 29.605469 71.40625 29.480469 C 71.09375 29.246094 70.792969 28.996094 70.511719 28.730469 C 69.964844 28.210938 69.460938 27.648438 69.011719 27.046875 C 68.832031 26.800781 68.847656 26.46875 69.054688 26.246094 C 69.257812 26.023438 69.59375 25.980469 69.847656 26.140625 L 69.867188 26.140625 C 70.457031 26.515625 71.050781 26.910156 71.632812 27.261719 C 71.925781 27.433594 72.210938 27.609375 72.496094 27.746094 C 72.625 27.8125 72.757812 27.871094 72.890625 27.925781 C 72.976562 27.960938 73.066406 27.984375 73.160156 27.988281 C 73.175781 27.988281 73.160156 27.972656 73.066406 27.976562 C 73.039062 27.972656 73.007812 27.972656 72.980469 27.976562 L 72.925781 27.988281 L 73.007812 27.945312 C 73.117188 27.886719 73.226562 27.820312 73.328125 27.746094 C 73.554688 27.589844 73.761719 27.414062 73.953125 27.21875 C 74.390625 26.761719 74.800781 26.277344 75.179688 25.769531 C 75.609375 25.289062 76.335938 25.214844 76.855469 25.597656 C 77.375 25.984375 77.515625 26.699219 77.179688 27.253906 Z M 77.210938 27.25 "/>
<use xlink:href="#surface50" mask="url(#mask15)"/>
<path style=" stroke:none;fill-rule:nonzero;fill:rgb(0%,15.686275%,47.843137%);fill-opacity:1;" d="M 68.074219 25.605469 L 68.363281 26.105469 C 68.363281 26.105469 68.585938 26.761719 69.035156 26.878906 L 70.25 26.488281 L 70.1875 26.386719 C 70.03125 26.148438 70.050781 25.691406 70.101562 25.3125 C 70.15625 24.933594 69.960938 24.921875 69.816406 25.015625 C 69.710938 25.132812 69.640625 25.273438 69.605469 25.425781 C 69.546875 25.34375 69.480469 25.265625 69.40625 25.195312 L 69.039062 24.824219 C 68.875 24.667969 68.621094 24.660156 68.453125 24.808594 L 68.152344 25.078125 C 68.007812 25.214844 67.972656 25.433594 68.074219 25.605469 Z M 68.074219 25.605469 "/>
<use xlink:href="#surface53" mask="url(#mask16)"/>
<path style=" stroke:none;fill-rule:nonzero;fill:rgb(0%,15.686275%,47.843137%);fill-opacity:1;" d="M 79.417969 23.804688 C 78.070312 24.164062 76.777344 24.707031 75.582031 25.421875 C 75.199219 25.660156 75.007812 26.113281 75.097656 26.554688 C 75.578125 28.914062 76.675781 32.074219 77.863281 34.085938 L 83.390625 31.800781 C 83.425781 30.824219 82.085938 27.671875 80.71875 24.621094 C 80.472656 24.074219 80 23.664062 79.417969 23.804688 Z M 79.417969 23.804688 "/>
<use xlink:href="#surface56" mask="url(#mask17)"/>
<use xlink:href="#surface59" mask="url(#mask18)"/>
<path style=" stroke:none;fill-rule:nonzero;fill:rgb(0%,15.686275%,47.843137%);fill-opacity:1;" d="M 79.054688 21.328125 C 78.597656 20.460938 77.609375 20.023438 76.425781 20.121094 C 75.425781 20.203125 74.539062 21.226562 74.644531 21.773438 C 74.75 22.324219 75.589844 22.558594 75.75 22.75 L 75.058594 23.25 C 74.890625 23.371094 74.78125 23.550781 74.753906 23.753906 C 74.726562 23.957031 74.78125 24.160156 74.90625 24.324219 C 75.199219 24.691406 75.585938 25.074219 75.808594 25.351562 C 77.722656 25.300781 79.140625 24.574219 79.652344 23.871094 C 79.460938 22.980469 79.5 22.195312 79.054688 21.328125 Z M 79.054688 21.328125 "/>
<use xlink:href="#surface62" mask="url(#mask19)"/>
<path style=" stroke:none;fill-rule:nonzero;fill:rgb(14.901961%,19.607843%,21.960784%);fill-opacity:1;" d="M 78.113281 21.871094 C 78.496094 22.84375 78.011719 23.941406 77.039062 24.320312 C 76.066406 24.699219 74.96875 24.21875 74.589844 23.246094 C 74.207031 22.273438 74.6875 21.175781 75.664062 20.796875 C 76.636719 20.414062 77.734375 20.898438 78.113281 21.871094 Z M 78.113281 21.871094 "/>
<path style=" stroke:none;fill-rule:nonzero;fill:rgb(0%,15.686275%,47.843137%);fill-opacity:1;" d="M 94.347656 44.398438 C 94.320312 43.578125 94.28125 43.648438 94.261719 42.957031 C 94.246094 42.53125 94.242188 42.058594 94.238281 41.652344 C 94.238281 41.253906 93.957031 40.910156 93.566406 40.832031 C 93.234375 40.765625 92.902344 40.703125 92.566406 40.632812 C 92.132812 40.539062 91.703125 40.441406 91.28125 40.316406 C 90.953125 40.222656 90.628906 40.117188 90.304688 40 C 89.984375 39.882812 89.621094 39.75 89.285156 39.59375 C 88.890625 39.425781 88.5 39.246094 88.113281 39.058594 C 87.683594 38.855469 87.253906 38.640625 86.828125 38.421875 C 85.183594 35.699219 85.148438 33.90625 83.382812 31.800781 L 79.59375 33.515625 C 79.59375 33.515625 82.378906 38.453125 84.273438 40.550781 C 85.363281 41.753906 87.078125 42.300781 88.605469 42.695312 C 89.707031 42.976562 90.824219 43.195312 91.941406 43.402344 C 92.378906 43.484375 92.851562 43.511719 93.226562 43.773438 C 93.503906 43.984375 93.691406 44.292969 93.761719 44.636719 C 93.777344 44.703125 93.792969 44.773438 93.804688 44.84375 C 93.851562 45.054688 94.363281 44.894531 94.347656 44.398438 Z M 94.347656 44.398438 "/>
<use xlink:href="#surface65" mask="url(#mask20)"/>
<use xlink:href="#surface68" mask="url(#mask21)"/>
<use xlink:href="#surface71" mask="url(#mask22)"/>
<path style=" stroke:none;fill-rule:nonzero;fill:rgb(100%,100%,100%);fill-opacity:1;" d="M 77.761719 21.886719 C 77.863281 22.265625 77.4375 22.664062 77.101562 22.335938 C 76.785156 21.996094 76.441406 21.6875 76.070312 21.414062 C 75.722656 21.195312 76.183594 20.816406 76.734375 20.960938 C 77.207031 21.082031 77.59375 21.425781 77.761719 21.886719 Z M 77.761719 21.886719 "/>
<path style=" stroke:none;fill-rule:nonzero;fill:rgb(0%,15.686275%,47.843137%);fill-opacity:1;" d="M 77.789062 33.964844 C 77.613281 34.03125 77.933594 34.328125 77.933594 34.328125 C 77.933594 34.328125 81.433594 33.132812 83.558594 31.898438 C 83.570312 31.75 83.507812 31.601562 83.390625 31.503906 C 81.570312 32.429688 79.703125 33.25 77.789062 33.964844 Z M 77.789062 33.964844 "/>
<use xlink:href="#surface74" mask="url(#mask23)"/>
<path style=" stroke:none;fill-rule:nonzero;fill:rgb(0%,15.686275%,47.843137%);fill-opacity:1;" d="M 80.363281 23.640625 C 81.054688 23.988281 81.703125 24.359375 82.363281 24.765625 C 82.6875 24.96875 83.007812 25.175781 83.324219 25.402344 C 83.640625 25.628906 83.957031 25.859375 84.273438 26.117188 L 84.390625 26.214844 L 84.539062 26.351562 C 84.628906 26.429688 84.710938 26.511719 84.789062 26.601562 C 84.871094 26.6875 84.9375 26.773438 85.003906 26.851562 C 85.066406 26.925781 85.136719 27.019531 85.195312 27.101562 C 85.429688 27.421875 85.644531 27.753906 85.839844 28.101562 C 86.226562 28.769531 86.5625 29.464844 86.839844 30.1875 C 86.945312 30.46875 86.839844 30.785156 86.585938 30.945312 C 86.328125 31.101562 86 31.0625 85.792969 30.84375 L 85.78125 30.828125 C 85.28125 30.296875 84.796875 29.734375 84.3125 29.210938 C 83.828125 28.691406 83.335938 28.160156 82.925781 27.925781 C 82.359375 27.574219 81.726562 27.222656 81.101562 26.878906 L 79.210938 25.828125 C 78.601562 25.503906 78.367188 24.746094 78.691406 24.136719 C 79.011719 23.527344 79.769531 23.292969 80.378906 23.617188 Z M 80.363281 23.640625 "/>
<use xlink:href="#surface77" mask="url(#mask24)"/>
<path style=" stroke:none;fill-rule:nonzero;fill:rgb(0%,15.686275%,47.843137%);fill-opacity:1;" d="M 87.433594 31.433594 L 87.21875 30.902344 C 87.21875 30.902344 87.101562 30.222656 86.679688 30.03125 L 85.429688 30.230469 L 85.472656 30.339844 C 85.585938 30.589844 85.5 31.046875 85.386719 31.414062 C 85.273438 31.777344 85.464844 31.824219 85.625 31.753906 C 85.714844 31.710938 85.800781 31.550781 85.898438 31.378906 C 85.945312 31.464844 85.996094 31.546875 86.054688 31.628906 L 86.363281 32.050781 C 86.496094 32.230469 86.746094 32.28125 86.9375 32.160156 L 87.277344 31.941406 C 87.441406 31.832031 87.503906 31.621094 87.433594 31.433594 Z M 87.433594 31.433594 "/>
<use xlink:href="#surface80" mask="url(#mask25)"/>
<use xlink:href="#surface83" mask="url(#mask26)"/>
<path style=" stroke:none;fill-rule:nonzero;fill:rgb(100%,100%,100%);fill-opacity:1;" d="M 75.890625 27.699219 C 76.121094 28.882812 76.542969 30.015625 77.140625 31.058594 C 78.058594 30.746094 79.582031 30.148438 80.324219 29.808594 C 79.824219 28.742188 79.382812 27.652344 79 26.539062 C 78.21875 26.59375 76.5 27.25 75.890625 27.699219 Z M 75.890625 27.699219 "/>
<use xlink:href="#surface86" mask="url(#mask27)"/>
<use xlink:href="#surface89" mask="url(#mask28)"/>
<use xlink:href="#surface92" mask="url(#mask29)"/>
<use xlink:href="#surface95" mask="url(#mask30)"/>
<use xlink:href="#surface98" mask="url(#mask31)"/>
<path style=" stroke:none;fill-rule:nonzero;fill:rgb(14.901961%,19.607843%,21.960784%);fill-opacity:1;" d="M 33.347656 77.5 L 37.722656 81.875 L 49.972656 70.332031 C 45.75 68.71875 37.539062 73.296875 33.347656 77.5 Z M 33.347656 77.5 "/>
<path style=" stroke:none;fill-rule:nonzero;fill:rgb(14.901961%,19.607843%,21.960784%);fill-opacity:1;" d="M 48.605469 92.75 C 47.207031 91.351562 44.230469 88.375 44.230469 88.375 L 55.773438 76.125 C 57.375 80.335938 52.796875 88.554688 48.605469 92.75 Z M 48.605469 92.75 "/>
<path style=" stroke:none;fill-rule:nonzero;fill:rgb(0%,15.686275%,47.843137%);fill-opacity:1;" d="M 65.351562 65.175781 L 70.121094 55.972656 L 60.921875 60.75 C 57.964844 62.28125 55.234375 64.21875 52.808594 66.5 L 37.121094 81.265625 L 44.828125 88.976562 L 59.597656 73.289062 C 61.878906 70.863281 63.816406 68.132812 65.351562 65.175781 Z M 65.351562 65.175781 "/>
<use xlink:href="#surface101" mask="url(#mask32)"/>
<path style=" stroke:none;fill-rule:nonzero;fill:rgb(100%,100%,100%);fill-opacity:1;" d="M 58.773438 70.546875 C 58.773438 72.324219 57.332031 73.769531 55.550781 73.769531 C 53.769531 73.769531 52.324219 72.324219 52.324219 70.546875 C 52.324219 68.765625 53.769531 67.320312 55.550781 67.320312 C 57.332031 67.320312 58.773438 68.765625 58.773438 70.546875 Z M 58.773438 70.546875 "/>
<path style=" stroke:none;fill-rule:nonzero;fill:rgb(0%,15.686275%,47.843137%);fill-opacity:1;" d="M 57.621094 70.546875 C 57.621094 71.691406 56.695312 72.617188 55.550781 72.617188 C 54.40625 72.617188 53.476562 71.691406 53.476562 70.546875 C 53.476562 69.398438 54.40625 68.472656 55.550781 68.472656 C 56.695312 68.472656 57.621094 69.398438 57.621094 70.546875 Z M 57.621094 70.546875 "/>
<use xlink:href="#surface104" mask="url(#mask33)"/>
<path style=" stroke:none;fill-rule:nonzero;fill:rgb(0%,15.686275%,47.843137%);fill-opacity:1;" d="M 35.054688 84.40625 C 29.40625 84.863281 27.53125 88.480469 26.890625 93.289062 C 26.566406 95.738281 26.421875 98.222656 24.363281 99.65625 C 24.109375 99.832031 24 100.148438 24.09375 100.441406 C 24.1875 100.734375 24.464844 100.929688 24.773438 100.921875 C 32.359375 100.683594 35.894531 96.972656 36.339844 95.421875 C 36.222656 96.234375 36.015625 97.027344 35.71875 97.789062 C 35.605469 98.066406 35.683594 98.382812 35.910156 98.574219 C 36.136719 98.769531 36.464844 98.792969 36.71875 98.636719 C 38.84375 97.304688 41.515625 94.851562 41.691406 90.867188 C 40.128906 88.648438 35.054688 84.40625 35.054688 84.40625 Z M 35.054688 84.40625 "/>
<use xlink:href="#surface107" mask="url(#mask34)"/>
<path style=" stroke:none;fill-rule:nonzero;fill:rgb(0%,15.686275%,47.843137%);fill-opacity:1;" d="M 42.570312 92.574219 L 33.519531 83.523438 L 38.339844 82.484375 L 43.613281 87.753906 Z M 42.570312 92.574219 "/>
</g>
</svg>
