<?xml version="1.0" standalone="no"?>
<!DOCTYPE svg PUBLIC "-//W3C//DTD SVG 1.0//EN" "http://www.w3.org/TR/2001/REC-SVG-20010904/DTD/svg10.dtd">
<svg xmlns="http://www.w3.org/2000/svg" xmlns:xlink="http://www.w3.org/1999/xlink" id="body_1" width="96" height="72">

    <defs>
        <radialGradient cx="43.005836%" cy="91.178604%" r="127.08056%" fx="43.005836%" fy="91.178604%" gradientUnits="objectBoundingBox" id="1">
            <stop offset="0%" stop-color="#999" stop-opacity="1" />
            <stop offset="60.000004%" stop-color="#999" stop-opacity="1" />
            <stop offset="99.91%" stop-color="#999" stop-opacity="1" />
        </radialGradient>
        <mask id="374">
            <path transform="matrix(72.58594 0 0 67.08984 60 32.625)" d="M1.162633 0.546522C 1.162633 0.7221958 1.0927725 0.8908541 0.9685523 1.0150743C 0.84433216 1.1392944 0.6756738 1.2091551 0.5 1.2091551C 0.3243262 1.2091551 0.15566784 1.1392944 0.031447712 1.0150743C -0.092772424 0.8908541 -0.162633 0.7221958 -0.162633 0.546522C -0.162633 0.3708482 -0.092772424 0.20218986 0.031447712 0.07796973C 0.15566784 -0.046250403 0.3243262 -0.11611098 0.5 -0.11611098C 0.6756738 -0.11611098 0.84433216 -0.046250403 0.9685523 0.07796973C 1.0927725 0.20218986 1.162633 0.3708482 1.162633 0.546522z" fill="white" />
        </mask>
    </defs>

    <g transform="matrix(0.375 0 0 0.375 12 -0)">
        <g>
            <path d="M18.03125 152.34766C 11.703125 152.34766 6.574219 147.10547 6.574219 140.64062C 6.574219 134.17188 11.703125 128.92969 18.03125 128.92969C 24.359375 128.92969 29.484375 134.17188 29.484375 140.64062C 29.484375 147.10547 24.359375 152.34766 18.03125 152.34766zM29.523438 153.83203C 29.523438 154.90625 31.359375 157.91797 33.609375 157.91797L33.609375 157.91797L35.070312 157.91797C 35.632812 157.91797 36.097656 157.45312 36.097656 156.89062L36.097656 156.89062L36.097656 124.84766L36.089844 124.84766C 36.0625 124.30859 35.61328 123.875 35.070312 123.875L35.070312 123.875L30.550781 123.875C 30.003906 123.875 29.558594 124.30859 29.527344 124.84766L29.527344 124.84766L29.523438 124.84766L29.523438 127.44922C 26.753906 124.03906 22.390625 122.625 18.011719 122.625C 8.0625 122.625 0 130.6914 0 140.64062C 0 150.58594 8.0625 158.65234 18.011719 158.65234C 22.390625 158.65234 27.160156 156.95703 29.523438 153.82812zM46.890625 149.2461C 49.90625 151.33203 53.19922 152.34766 56.36328 152.34766C 59.378906 152.34766 62.492188 150.78516 62.492188 148.0664C 62.492188 144.4336 55.703125 143.8711 51.4375 142.42188C 47.171875 140.97266 43.496094 137.97266 43.496094 133.1211C 43.496094 125.69141 50.11328 122.625 56.289062 122.625C 60.203125 122.625 64.24219 123.91406 66.859375 125.765625C 67.76172 126.44531 67.21094 127.23047 67.21094 127.23047L67.21094 127.23047L64.71484 130.80078C 64.43359 131.20312 63.851562 131.52344 63.23828 131.11328C 61.554688 130.0039 59.679688 128.92969 56.289062 128.92969C 52.097656 128.92969 50.253906 130.67188 50.253906 132.82812C 50.253906 135.41406 53.203125 136.22656 56.660156 137.10938C 62.679688 138.73047 69.25 140.6836 69.25 148.0664C 69.25 154.60938 63.128906 158.65625 56.36328 158.65625C 51.23828 158.65625 46.871094 157.1914 43.210938 154.50781C 42.44922 153.74219 42.98047 153.03516 42.98047 153.03516L42.98047 153.03516L45.46875 149.48438C 45.976562 148.82031 46.61328 149.05078 46.890625 149.2461zM103.13281 153.83203C 103.13281 154.90625 104.97266 157.91797 107.22266 157.91797L107.22266 157.91797L108.67969 157.91797C 109.24609 157.91797 109.71094 157.45312 109.71094 156.89062L109.71094 156.89062L109.71094 124.84766L109.703125 124.84766C 109.671875 124.30859 109.22656 123.875 108.67969 123.875L108.67969 123.875L104.16406 123.875C 103.61719 123.875 103.16797 124.30859 103.140625 124.84766L103.140625 124.84766L103.13281 124.84766L103.13281 127.44922C 100.36719 124.03906 96 122.625 91.625 122.625C 81.67578 122.625 73.609375 130.6914 73.609375 140.64062C 73.609375 150.58594 81.67578 158.65234 91.625 158.65234C 96 158.65234 100.76953 156.95703 103.13281 153.82812zM91.640625 152.34766C 85.31641 152.34766 80.1875 147.10547 80.1875 140.64062C 80.1875 134.17188 85.31641 128.92969 91.640625 128.92969C 97.96875 128.92969 103.09766 134.17188 103.09766 140.64062C 103.09766 147.10547 97.96875 152.34766 91.640625 152.34766zM150.1914 154.9336L150.1875 138.35547C 150.1875 129.00781 144.29297 122.703125 134.88672 122.703125C 130.39844 122.703125 126.72656 125.296875 125.42969 127.52734L125.42969 127.52734L125.42969 127.49609L125.421875 127.52344C 125.41797 125.265625 123.58984 123.953125 121.33203 123.953125L121.33203 123.953125L119.88281 123.953125C 119.31641 123.953125 118.85156 124.41406 118.85156 124.98047L118.85156 124.98047L118.85156 157.02734L118.859375 157.02734C 118.88672 157.5664 119.33594 157.9961 119.88281 157.9961L119.88281 157.9961L124.39844 157.9961C 124.46875 157.9961 124.53516 157.98828 124.60156 157.97656C 124.63281 157.97266 124.66016 157.96094 124.6875 157.94922C 124.72266 157.9414 124.75781 157.9336 124.78906 157.91797C 124.83203 157.90234 124.86719 157.8789 124.90234 157.85938C 124.921875 157.84766 124.94141 157.83984 124.96094 157.82812C 125.00391 157.80078 125.046875 157.76562 125.08594 157.73047C 125.09375 157.72266 125.10156 157.71875 125.10547 157.71094C 125.15234 157.66797 125.19141 157.6211 125.23047 157.57031C 125.34375 157.41406 125.41016 157.22656 125.421875 157.02734L125.421875 157.02734L125.42969 157.02734L125.42969 138.09766C 125.42969 133.07812 129.4961 129.00781 134.51953 129.00781C 139.53906 129.00781 143.60938 133.07812 143.60938 138.09766L143.60938 138.09766L143.61328 153.91797L143.61328 153.91406C 143.61328 153.92578 143.61719 153.9414 143.61719 153.95703L143.61719 153.95703L143.61719 157.02734L143.6211 157.02734C 143.65234 157.5664 144.09766 157.9961 144.64453 157.9961L144.64453 157.9961L149.16406 157.9961C 149.23047 157.9961 149.30078 157.98828 149.36328 157.97656C 149.39062 157.97266 149.41797 157.96094 149.4414 157.95312C 149.48047 157.94531 149.51953 157.9336 149.55469 157.91797C 149.58984 157.90234 149.625 157.88281 149.65625 157.86328C 149.67969 157.85156 149.70312 157.84375 149.72266 157.82812C 149.76562 157.80078 149.80078 157.76953 149.83984 157.73438C 149.85156 157.72656 149.85938 157.71875 149.8711 157.71094C 149.91406 157.67188 149.94922 157.625 149.98438 157.57812C 149.98828 157.57422 149.99219 157.57031 149.99219 157.57031C 150.10547 157.41406 150.17188 157.23047 150.1836 157.02734L150.1836 157.02734L150.1914 157.02734zM185.42578 153.83203C 185.42578 154.90625 187.26172 157.91797 189.51172 157.91797L189.51172 157.91797L190.97266 157.91797C 191.53516 157.91797 192 157.45312 192 156.89062L192 156.89062L192 124.84766L191.9961 124.84766C 191.96484 124.30859 191.51562 123.875 190.97266 123.875L190.97266 123.875L186.45312 123.875C 185.90625 123.875 185.46094 124.30859 185.42969 124.84766L185.42969 124.84766L185.42578 124.84766L185.42578 127.44922C 182.65625 124.03906 178.29297 122.625 173.91406 122.625C 163.96875 122.625 155.90234 130.6914 155.90234 140.64062C 155.90234 150.58594 163.96875 158.65234 173.91406 158.65234C 178.29297 158.65234 183.0625 156.95703 185.42188 153.82812zM173.9336 152.34766C 167.60547 152.34766 162.47656 147.10547 162.47656 140.64062C 162.47656 134.17188 167.60547 128.92969 173.9336 128.92969C 180.25781 128.92969 185.38672 134.17188 185.38672 140.64062C 185.38672 147.10547 180.25781 152.34766 173.9336 152.34766z" stroke="none" fill="#999" fill-rule="nonzero" />
            <path d="M116.80078 68.14453C 108.08203 68.14453 101.01172 75.21094 101.01172 83.92969C 101.01172 92.64844 108.08203 99.71484 116.80078 99.71484C 125.515625 99.71484 132.58594 92.64844 132.58594 83.92969C 132.58594 75.21094 125.515625 68.14453 116.80078 68.14453zM75.78516 68.14453C 67.06641 68.14453 60 75.21094 60 83.92969C 60 92.64844 67.06641 99.71484 75.78516 99.71484C 84.50391 99.71484 91.57422 92.64844 91.57422 83.92969C 91.57422 75.21094 84.50391 68.14453 75.78516 68.14453zM112.078125 48.410156C 112.078125 57.128906 105.01172 64.19922 96.29297 64.19922C 87.57422 64.19922 80.50781 57.128906 80.50781 48.410156C 80.50781 39.691406 87.57422 32.625 96.29297 32.625C 105.01172 32.625 112.078125 39.691406 112.078125 48.410156z" stroke="none" mask="url(#374)" fill="url(#1)" />
        </g>
    </g>
</svg>