<?xml version="1.0" standalone="no"?>
<!DOCTYPE svg PUBLIC "-//W3C//DTD SVG 1.0//EN" "http://www.w3.org/TR/2001/REC-SVG-20010904/DTD/svg10.dtd">
<svg xmlns="http://www.w3.org/2000/svg" xmlns:xlink="http://www.w3.org/1999/xlink" id="body_1" width="96" height="72">

	<g transform="matrix(0.07651435 0 0 0.07651435 11.999999 -0)">
		<g>
			<path d="M0 387.375C 26.5 387.41016 53.007812 387.01172 79.49219 387.6211C 99.90625 388.08984 115.90625 401.95703 119.34766 420.89844C 123.24609 442.33984 112.12109 460.64844 94.95703 465.5625C 94.51953 465.6836 94.16797 466.08984 93.578125 466.5C 109.9375 471.1836 119.703125 482.01172 122.453125 498.23438C 126.98828 525 112.22266 546.9961 84.33203 550.10547C 78.14453 550.79297 71.86328 550.77734 65.625 550.8086C 43.75 550.9258 21.875 550.9219 0 550.96484L0 550.96484L0 387.375zM35.226562 519.7344C 35.683594 519.8906 36.13672 520.1797 36.589844 520.1797C 47.570312 520.1992 58.566406 520.58984 69.52344 520.0703C 80.859375 519.53125 87.60156 512.5625 87.90234 502.29688C 88.203125 491.98047 81.97656 484.53906 70.875 483.20703C 63.85547 482.36328 56.6875 482.75 49.585938 482.64844C 44.878906 482.58594 40.171875 482.63672 35.226562 482.63672zM34.98828 452.19922C 45.222656 452.19922 54.941406 452.21484 64.66016 452.1836C 66.53125 452.17578 68.44141 452.1914 70.26172 451.82812C 77.125 450.44922 82.29297 446.9297 84.08984 439.77734C 86.953125 428.375 79.6875 418.51953 67.88672 417.9375C 62.402344 417.66406 56.890625 417.86328 51.39453 417.85547C 46.0625 417.85156 40.726562 417.85547 35.23047 417.85547C 35.121094 419.03516 34.996094 419.7578 34.996094 420.47656C 34.984375 430.83594 34.98828 441.1953 34.98828 452.19922zM631.83594 553.96484C 627.6914 553.1953 623.5078 552.60547 619.41406 551.625C 587.3789 543.9453 571.0508 516.3672 573.85156 485.89844C 576.1953 460.38672 589.0586 441.73438 613.5547 433.09766C 647.7539 421.04297 687.41797 437.3203 693.26953 482.82812C 694.03906 488.83984 694.0039 494.95703 694.3711 501.5625L694.3711 501.5625L606.0508 501.5625C 608.09766 512.77344 613.75 520.6406 623.6094 524.8203C 639.6289 531.6133 654.6367 528.22656 668.78516 519.1211C 669.6211 518.58203 670.3906 517.9414 671.2031 517.3633C 671.28516 517.3086 671.4414 517.35547 672.0078 517.35547C 676.33984 523.73047 680.8086 530.3086 685.8281 537.7031C 681.27344 540.5469 677.0703 543.625 672.48047 545.9336C 664.03516 550.1758 654.95703 552.4258 645.51953 553.21094C 644.4453 553.3008 643.39844 553.70703 642.33984 553.96484zM663.8867 480.03125C 664.5 465.33984 650.5039 454.1172 632.78125 454.8164C 618.03906 455.39844 604.9336 467.8828 606.5039 480.03125zM758.65234 553.96484C 753.5547 552.9414 748.375 552.21484 743.375 550.83594C 719.5 544.25 703.02734 524.0586 700.8594 499.3789C 698.8164 476.10156 705.5625 456.3711 724.25 441.6875C 752.5664 419.4336 808.21484 424.48047 819.26953 477.1328C 820.0625 480.90625 820.52734 484.77734 820.7656 488.6289C 821.02344 492.71484 820.8242 496.83203 820.8242 501.5625L820.8242 501.5625L733.08203 501.5625C 733.84375 508.14453 736.39844 513.4336 740.6406 517.8125C 750.34375 527.8281 762.45703 529.71484 775.54297 527.41797C 783.8828 525.9531 791.5781 522.78516 798.5078 516.85156L798.5078 516.85156L812.6328 537.5547C 808.95703 540.0156 805.6211 542.6211 801.96484 544.6211C 792.8672 549.59766 783.02344 552.22266 772.71484 553.1875C 771.5156 553.3008 770.34375 553.6992 769.16016 553.96484C 765.65625 553.96484 762.15625 553.96484 758.65234 553.96484zM733.28906 480.0078L790.72656 480.0078C 791.46484 465.76953 777.7969 454.45703 760.625 454.79297C 745.3828 455.08984 732.1914 467.14062 733.28906 480.0078zM177.84375 553.96484C 174.08984 553.1953 170.3125 552.53125 166.58594 551.64453C 143.51562 546.14453 129.88672 528.8711 129.86328 505.1328C 129.84766 482.375 129.85938 459.6172 129.85938 436.85938L129.85938 436.85938L129.85938 432.78125L161.05078 432.78125L161.05078 437.1289C 161.05078 458.63672 161.11328 480.14062 161.01953 501.64844C 160.97656 511.40234 163.96094 519.66406 173.20703 523.91016C 183.22266 528.5117 193.48438 528.34375 202.75 521.7422C 209.53906 516.90625 211.46094 509.5078 211.47266 501.5586C 211.51562 480.17578 211.48828 458.79688 211.48828 437.41406L211.48828 437.41406L211.48828 432.71094L242.33594 432.71094L242.33984 436.92578C 242.33984 459.4336 242.34766 481.9414 242.33594 504.44922C 242.32031 531.6094 225.41406 550.27734 198.32422 553.125C 196.98828 553.2656 195.67578 553.6758 194.35547 553.96094C 188.85156 553.96484 183.34766 553.96484 177.84375 553.96484zM472.33203 550.58984L472.33203 387.48828L585.77344 387.48828L585.77344 403.3086C 585.77344 406.8086 585.53906 410.33203 585.83984 413.8086C 586.1406 417.26953 584.75 417.9414 581.5625 417.92188C 559.1797 417.79297 536.7969 417.85547 514.41016 417.85547L514.41016 417.85547L507.33203 417.85547L507.33203 452.19922L511.5547 452.19922C 528.4375 452.19922 545.3203 452.29688 562.2031 452.1172C 565.6133 452.08203 566.41406 453.16797 566.33594 456.39062C 566.125 464.98438 566.2617 473.58594 566.2617 482.60938L566.2617 482.60938L507.07812 482.60938L507.07812 550.58984zM828.72656 550.52344L828.72656 546.2344C 828.72656 509.73438 828.72656 473.23438 828.73047 436.73438C 828.73047 431.9414 828.7344 431.89844 833.6797 431.9453C 850.7969 432.10547 867.9844 431.375 885.0078 432.6914C 909.27344 434.5703 928.2656 445.5 937.2539 469.44922C 946.3906 493.78906 939.4297 521.5664 920.8633 536.78125C 909.9258 545.7461 897.0547 550.16016 883.1953 550.66016C 865.58984 551.2969 847.9492 550.8633 830.3281 550.875C 829.96875 550.875 829.6094 550.72266 828.72656 550.52344zM858.46875 525.4922C 864.4492 525.4922 870.0469 525.4922 875.64453 525.4922C 895.78516 525.4844 908.46484 514.1367 910.72266 494.09766C 912.33984 479.70703 904.5586 465.39844 892.16406 460.3164C 881.2461 455.84375 869.84375 458.22266 858.47266 457.58984C 858.46875 480.4375 858.46875 502.65234 858.46875 525.4922zM305.21094 459.42578L252.36719 459.42578L252.36719 432.66016L347.89844 432.66016C 347.89844 437.71094 347.64453 442.78516 347.97266 447.8203C 348.27344 452.46484 346.85938 456.0547 343.9297 459.69922C 328.03906 479.47266 312.40234 499.4414 296.6836 519.34766C 295.83984 520.41406 295.03906 521.5156 293.72266 523.25L293.72266 523.25L348.53125 523.25L348.53125 550.52734L252.07812 550.52734C 252.07812 543.0781 251.96875 535.6289 252.17969 528.1914C 252.21875 526.91406 253.5 525.58203 254.40625 524.4336C 270.53125 503.89453 286.6914 483.3789 302.83203 462.85156C 303.5039 461.9961 304.07812 461.0625 305.21094 459.42578zM357.0664 459.45312C 357.0664 451.0078 357.0625 443.26562 357.07812 435.52344C 357.08203 434.67188 357.22266 433.8164 357.32422 432.70703L357.32422 432.70703L452.5586 432.70703C 452.5586 439.90234 452.63672 446.98438 452.47266 454.0586C 452.44922 455.125 451.39844 456.25 450.64453 457.20703C 434.2461 478.01562 417.8203 498.8047 401.41016 519.60547C 400.60156 520.6328 399.8789 521.73047 398.61328 523.4883L398.61328 523.4883L403.39453 523.4883C 418.89844 523.4883 434.39844 523.5508 449.90234 523.4297C 452.78125 523.41016 453.85547 524.1172 453.77344 527.1836C 453.5625 534.90625 453.70312 542.6367 453.70312 550.59766L453.70312 550.59766L357.16016 550.59766C 357.16016 542.8867 357.10156 535.3047 357.23828 527.72656C 357.2539 526.77734 358.2539 525.78516 358.9336 524.91797C 374.6797 504.8672 390.4453 484.83594 406.20703 464.79297C 407.41016 463.26172 408.58984 461.71094 410.32812 459.45312z" stroke="none" fill="#999" fill-rule="nonzero" />
		</g>
	</g>
</svg>