<?xml version="1.0" encoding="UTF-8"?>
<svg xmlns="http://www.w3.org/2000/svg" xmlns:xlink="http://www.w3.org/1999/xlink" width="px" height="px" viewBox="0 0 48 48" version="1.1">
<g id="surface1">
<path style=" stroke:none;fill-rule:nonzero;fill:rgb(0%,0%,0%);fill-opacity:1;" d="M 24 0 C 10.5 0 0 10.5 0 24 C 0 39.75 14.25 46.5 16.5 46.5 C 18 46.5 18 45.75 18 45 L 18 41.25 C 12.75 42.75 10.5 39.75 9.75 37.5 C 9.75 37.5 9.75 36.75 8.25 35.25 C 7.5 34.5 4.5 33 7.5 33 C 9.75 33 11.25 36 11.25 36 C 13.5 39 16.5 38.25 18 37.5 C 18 36 19.5 34.5 19.5 34.5 C 13.5 33.75 9 31.5 9 23.25 C 9 20.25 9.75 18 11.25 16.5 C 11.25 16.5 9.75 13.5 11.25 9.75 C 11.25 9.75 15 9.75 18 12.75 C 20.25 11.25 27.75 11.25 30 12.75 C 33 9.75 36.75 9.75 36.75 9.75 C 38.25 15 36.75 16.5 36.75 16.5 C 38.25 18 39 20.25 39 23.25 C 39 31.5 33.75 33.75 28.5 34.5 C 29.25 35.25 30 36.75 30 39 L 30 45 C 30 45.75 30 46.5 31.5 46.5 C 33.75 46.5 48 39.75 48 24 C 48 10.5 37.5 0 24 0 Z M 24 0 "/>
</g>
</svg>
