<?xml version="1.0" encoding="UTF-8"?>
<svg xmlns="http://www.w3.org/2000/svg" xmlns:xlink="http://www.w3.org/1999/xlink" width="px" height="px" viewBox="0 0 197 197" version="1.1">
<g id="surface1">
<path style=" stroke:none;fill-rule:nonzero;fill:rgb(25.882353%,52.156863%,95.686275%);fill-opacity:1;" d="M 194.652344 100.34375 C 194.652344 92.273438 193.996094 86.382812 192.582031 80.273438 L 100.417969 80.273438 L 100.417969 116.703125 L 154.515625 116.703125 C 153.425781 125.757812 147.535156 139.390625 134.445312 148.550781 L 134.261719 149.769531 L 163.402344 172.34375 L 165.421875 172.546875 C 183.964844 155.421875 194.652344 130.226562 194.652344 100.34375 "/>
<path style=" stroke:none;fill-rule:nonzero;fill:rgb(20.392157%,65.882353%,32.54902%);fill-opacity:1;" d="M 100.417969 196.324219 C 126.921875 196.324219 149.171875 187.597656 165.421875 172.546875 L 134.445312 148.550781 C 126.15625 154.332031 115.03125 158.367188 100.417969 158.367188 C 74.460938 158.367188 52.425781 141.242188 44.574219 117.574219 L 43.421875 117.671875 L 13.121094 141.125 L 12.726562 142.226562 C 28.867188 174.289062 62.023438 196.324219 100.417969 196.324219 "/>
<path style=" stroke:none;fill-rule:nonzero;fill:rgb(98.431373%,73.72549%,1.960784%);fill-opacity:1;" d="M 44.574219 117.574219 C 42.5 111.46875 41.300781 104.921875 41.300781 98.160156 C 41.300781 91.398438 42.5 84.855469 44.464844 78.746094 L 44.410156 77.445312 L 13.730469 53.621094 L 12.726562 54.097656 C 6.074219 67.402344 2.253906 82.347656 2.253906 98.160156 C 2.253906 113.976562 6.074219 128.917969 12.726562 142.226562 L 44.574219 117.574219 "/>
<path style=" stroke:none;fill-rule:nonzero;fill:rgb(92.156863%,26.27451%,20.784314%);fill-opacity:1;" d="M 100.417969 37.957031 C 118.851562 37.957031 131.285156 45.917969 138.371094 52.570312 L 166.078125 25.523438 C 149.0625 9.707031 126.921875 0 100.417969 0 C 62.023438 0 28.867188 22.03125 12.726562 54.097656 L 44.464844 78.746094 C 52.425781 55.078125 74.460938 37.957031 100.417969 37.957031 "/>
</g>
</svg>
