<?xml version="1.0" standalone="no"?>
<!DOCTYPE svg PUBLIC "-//W3C//DTD SVG 1.0//EN" "http://www.w3.org/TR/2001/REC-SVG-20010904/DTD/svg10.dtd">
<svg xmlns="http://www.w3.org/2000/svg" xmlns:xlink="http://www.w3.org/1999/xlink" id="body_1" width="96" height="72">

        <g transform="matrix(0.22857144 0 0 0.22857144 -0 1.7142857)">
                <g>
                        <path d="M27.75 116.25L392.25 116.25L392.25 183.75L27.75 183.75L27.75 116.25z" stroke="none" fill="none" fill-rule="nonzero" />
                        <path d="M76.1875 138.80078C 80.46875 138.80078 80.46875 144.55469 80.46875 151.25C 80.46875 157.94531 75.98047 170.99219 65.17969 170.99219C 54.378906 170.99219 50.80078 165.46484 47.3125 160.67188C 43.820312 155.8789 38.765625 147.78516 43.390625 143.77734C 42.23047 136.71094 46.433594 137.23047 46.433594 137.23047C 46.433594 137.23047 46.433594 133.32812 49.45703 131.76953C 52.40625 130.25 55.15625 133.32812 55.15625 133.32812C 55.15625 133.32812 59.94922 130.6211 63.179688 133.82812C 66.41406 137.03516 70.42969 143.51172 70.42969 143.51172C 70.42969 143.51172 71.91406 138.80078 76.1875 138.80078z" stroke="none" fill="#999" fill-rule="nonzero" />
                        <path d="M76.78125 160.03125C 74.44531 165.47266 69.21484 169.04297 63.296875 169.07031C 58.210938 169.07031 53.960938 165.42969 51.273438 162.34766C 48.382812 158.6875 45.921875 154.70312 43.9375 150.48047C 43.242188 148.5 43.1875 147.29297 43.9375 146.64453C 44.6875 145.99219 46.191406 146.46875 47 147.47656C 47.8125 148.48047 52.933594 155.2461 53.089844 155.58203C 53.25 155.92578 53.63672 156.08984 54 155.98047C 54.32422 155.71094 54.371094 155.22266 54.101562 154.89453L54.101562 154.89453L45.753906 143.01953C 45.003906 141.98828 45.226562 140.54297 46.257812 139.78906C 46.285156 139.77344 46.304688 139.7539 46.32422 139.73828C 47.41797 138.99219 48.90625 139.2461 49.6875 140.3125L49.6875 140.3125L56.76953 149.98828C 56.929688 150.3164 57.335938 150.46094 57.664062 150.28906C 57.679688 150.28516 57.69922 150.27734 57.714844 150.26172C 58.05078 150.02734 57.94922 149.55469 57.714844 149.21875L57.714844 149.21875L49.726562 137.05469C 48.98047 136.01953 49.203125 134.57812 50.234375 133.82031C 50.26172 133.8086 50.28125 133.78516 50.30078 133.77344C 51.38672 133.01562 52.88672 133.26562 53.664062 134.34766L53.664062 134.34766L62.28125 146.96094C 62.51953 147.28125 62.95703 147.53516 63.289062 147.30078C 63.625 147.0625 63.484375 146.57031 63.289062 146.21484C 62.203125 144.41016 58.421875 137.94531 57.79297 136.80469C 57.16797 135.66406 57.023438 134.50781 57.79297 133.97656C 58.5625 133.4414 60.265625 133.71875 62.42578 135.95312C 65.05859 139.1875 67.39453 142.63672 69.42578 146.27344C 69.60156 146.57812 69.80859 146.84766 70.05859 147.08594C 70.890625 147.89453 71.46484 147.73828 71.82031 146.96094C 72.17969 146.1875 72.65234 140.71094 75.77734 140.83203C 76.90234 140.83203 77.75391 141.96094 78.16406 144.78906C 79.11719 149.89062 78.63672 155.17188 76.78125 160.03125zM82.25781 144.20703C 81.68359 139.38281 79.44922 136.89062 76.00391 136.78906C 73.69531 136.65625 71.48828 137.7539 70.21484 139.67969C 68.82422 137.39062 67.25 135.21875 65.50781 133.1914C 61.121094 128.46875 57.597656 129.08203 55.621094 130.46484C 53.359375 128.82422 50.308594 128.76562 47.98828 130.32422C 46.164062 131.54688 45.085938 133.60547 45.117188 135.80469C 43.11328 136.66016 41.683594 138.46484 41.304688 140.60938C 41.11328 141.52344 41.11328 142.46875 41.304688 143.3789L41.304688 143.3789L40.964844 143.67578C 38.98828 145.65234 38.578125 148.3789 39.941406 152.03906C 42.11328 156.6875 44.847656 161.0625 48.066406 165.07422C 52.79297 170.49219 57.95703 173.24219 63.234375 173.24219C 70.85547 173.23438 77.72656 168.66406 80.67578 161.6289C 82.828125 156.0664 83.390625 150.01172 82.296875 144.14844" stroke="none" fill="#fff" fill-rule="nonzero" />
                        <path d="M72.40625 159.14062C 71.21484 156.66406 70.546875 153.97656 70.42969 151.22656C 70.42969 150.64844 69.95703 150.1836 69.38281 150.1836C 68.81641 150.1836 68.359375 150.64062 68.359375 151.20703L68.359375 151.20703L68.359375 151.22656C 68.46484 154.3125 69.21484 157.34375 70.55078 160.125C 70.828125 160.63281 71.46484 160.82031 71.97656 160.54297C 72.47656 160.27344 72.671875 159.65234 72.39453 159.15234C 72.39453 159.14453 72.38672 159.14453 72.38672 159.14062M66.10156 150.63281C 66.43359 151.10156 66.328125 151.74219 65.859375 152.0664C 65.85547 152.07031 65.85547 152.07031 65.84766 152.07031C 63.421875 154.01562 61.40625 156.41406 59.914062 159.13281C 59.617188 159.625 58.98047 159.78906 58.48828 159.49219C 57.996094 159.19531 57.835938 158.5586 58.132812 158.0664C 59.765625 155.09766 61.984375 152.49219 64.66016 150.39062C 65.13281 150.05469 65.78125 150.16016 66.125 150.6289" stroke="none" fill="none" fill-rule="nonzero" />
                        <path d="M50.046875 174.48047C 45.65625 171.98438 42.179688 168.13672 40.15625 163.50781C 40.015625 162.94531 39.44922 162.60156 38.88672 162.73828C 38.328125 162.8789 37.984375 163.44531 38.117188 164.00781C 38.132812 164.0664 38.152344 164.1211 38.179688 164.17578C 40.398438 169.33984 44.265625 173.61328 49.17578 176.33984C 49.67578 176.60938 50.296875 176.42578 50.570312 175.9336C 50.839844 175.4336 50.660156 174.8125 50.16797 174.53516C 50.125 174.52344 50.085938 174.5039 50.046875 174.48047M74.015625 133.23438C 73.48828 133.46875 72.875 133.23828 72.62891 132.71875C 71.015625 130.14062 68.65625 128.11719 65.86719 126.91016C 65.328125 126.71094 65.05078 126.125 65.234375 125.58594C 65.41016 125.03125 65.99609 124.72656 66.55078 124.89844C 66.57422 124.90234 66.609375 124.91797 66.63672 124.92969C 69.92969 126.328125 72.69922 128.72266 74.546875 131.79688C 74.78516 132.32031 74.55469 132.9375 74.03516 133.17969" stroke="none" fill="#999" fill-rule="nonzero" />
                        <path d="M367.03906 156.95312L361.70703 140.88672L351.91797 140.88672L362.3828 167.07812C 361.77344 167.88672 361.09766 168.15625 360.15234 168.15625C 359.14062 168.15625 357.58984 167.61719 356.03516 166.73828L356.03516 166.73828L353.20312 173.28906C 355.6328 174.70312 358.39844 175.58203 361.70703 175.58203C 367.03906 175.58203 369.53516 173.15234 371.83203 166.9414L371.83203 166.9414L381.6172 140.95312L372.03516 140.95312L367.03906 156.95312z" stroke="none" fill="#999" fill-rule="nonzero" />
                        <path d="M344.01953 168.08984C 346.65234 168.08984 348.8828 167.48438 350.5 166.53906L350.5 166.53906L350.5 159.2461C 349.35547 159.78906 348.20703 160.125 346.92188 160.125C 345.16797 160.125 344.35938 159.3164 344.35938 157.49219L344.35938 157.49219L344.35938 148.3789L350.5703 148.3789L350.5703 140.88672L344.35938 140.88672L344.35938 134.13672L335.10938 134.13672L335.10938 140.88672L331.9375 140.88672L331.9375 148.3789L335.10938 148.3789L335.10938 159.2461C 335.10938 165.66016 338.41797 168.08984 344.01953 168.08984z" stroke="none" fill="#999" fill-rule="nonzero" />
                        <path d="M311.82422 167.55078L321.20703 167.55078L321.20703 159.2461C 321.20703 153.10547 323.97266 150.33594 328.83203 150.33594L328.83203 150.33594L329.64453 150.33594L329.64453 140.48438C 325.1875 140.28125 322.7578 142.64062 321.20703 146.28906L321.20703 146.28906L321.20703 140.88672L311.82422 140.88672L311.82422 167.55078z" stroke="none" fill="#999" fill-rule="nonzero" />
                        <path d="M304.90625 143.72266C 302.8125 141.6289 299.5039 140.48438 294.78125 140.48438C 290.1914 140.48438 287.01562 141.29297 283.98047 142.57422L283.98047 142.57422L285.8711 149.1211C 288.30078 148.2461 290.46094 147.63672 293.29688 147.63672C 296.8711 147.63672 298.6289 149.1914 298.6289 152.02344L298.6289 152.02344L298.6289 152.4961C 297.07422 151.89062 294.71094 151.48438 292.21484 151.48438C 285.9375 151.48438 281.7539 154.32031 281.7539 159.85547L281.7539 159.85547L281.7539 159.92188C 281.6836 165.1875 285.53125 168.15625 290.59375 168.15625C 294.10547 168.15625 296.60156 166.8086 298.4922 164.78125L298.4922 164.78125L298.4922 167.55078L307.73828 167.55078L307.73828 152.22656C 307.73828 148.51562 306.9297 145.7461 304.90625 143.72266zM298.6289 157.89844C 298.6289 160.53125 296.67188 162.28516 293.90234 162.28516C 292.01172 162.28516 290.59375 161.20312 290.59375 159.38281L290.59375 159.38281L290.59375 159.3164C 290.59375 157.28906 292.14844 156.00781 294.91406 156.00781C 296.26562 156.00781 297.61328 156.27734 298.6289 156.6836z" stroke="none" fill="#999" fill-rule="nonzero" />
                        <path d="M267.20703 140.34766C 263.22266 140.34766 260.9297 142.23828 259.10547 144.46484L259.10547 144.46484L259.10547 140.88672L249.72266 140.88672L249.72266 175.44922L259.17188 175.44922L259.17188 164.3086C 260.9297 166.33594 263.29297 168.15625 267.27344 168.15625C 273.55078 168.15625 279.01953 162.89062 279.01953 154.1836L279.01953 154.1836L279.01953 154.11719C 279.01953 145.61328 273.55078 140.34766 267.20703 140.34766zM269.90625 154.2539C 269.90625 157.82812 267.41016 160.32812 264.4375 160.32812C 261.40234 160.32812 258.97266 157.82812 258.97266 154.2539L258.97266 154.2539L258.97266 154.1836C 258.97266 150.60938 261.40234 148.10938 264.4375 148.10938C 267.47656 148.10938 269.90625 150.60938 269.90625 154.1836z" stroke="none" fill="#999" fill-rule="nonzero" />
                        <path d="M245.94531 154.85938C 245.94531 147.03125 241.6914 140.28125 232.51172 140.28125C 224.61328 140.28125 219.07812 146.42188 219.07812 154.2539L219.07812 154.2539L219.07812 154.32031C 219.07812 162.55469 225.01953 168.15625 233.39062 168.15625C 238.65234 168.15625 242.36719 165.9961 244.92969 162.75781L244.92969 162.75781L239.73438 158.4375C 237.84375 160.32812 236.08984 161.13672 233.79297 161.13672C 230.89062 161.13672 228.79688 159.65234 228.05469 156.75L228.05469 156.75L245.875 156.75C 245.94531 156.14062 245.94531 155.39844 245.94531 154.85938zM227.92188 152.02344C 228.39453 149.05469 230.08203 147.16406 232.57812 147.16406C 235.14453 147.16406 236.89844 149.05469 237.23438 152.02344z" stroke="none" fill="#999" fill-rule="nonzero" />
                        <path d="M205.375 168.15625C 211.85547 168.15625 216.24219 165.1211 216.24219 159.2461L216.24219 159.2461L216.24219 159.17969C 216.24219 153.98438 212.0586 152.16016 206.79297 150.67578C 204.02734 149.86328 202.47266 149.32422 202.47266 148.3125L202.47266 148.3125L202.47266 148.2461C 202.47266 147.4336 203.21484 146.89453 204.63281 146.89453C 206.72656 146.89453 209.76562 147.83984 212.53125 149.39062L212.53125 149.39062L215.70312 143.45312C 212.66797 141.4961 208.61719 140.34766 204.70312 140.34766C 198.5586 140.34766 194.03516 143.51953 194.03516 149.1914L194.03516 149.1914L194.03516 149.25781C 194.03516 154.58984 198.22266 156.34375 203.48438 157.76172C 206.32031 158.57422 207.80469 158.97656 207.80469 160.0586L207.80469 160.0586L207.80469 160.125C 207.80469 161.07031 206.9961 161.54297 205.375 161.54297C 202.60938 161.54297 199.30078 160.53125 196.26562 158.5039L196.26562 158.5039L192.7539 164.10938C 196.46484 166.8086 200.92188 168.15625 205.375 168.15625z" stroke="none" fill="#999" fill-rule="nonzero" />
                        <path d="M172.64062 168.15625C 176.41797 168.15625 178.91797 166.0664 180.60547 163.83594L180.60547 163.83594L180.60547 167.55078L189.91797 167.55078L189.91797 140.88672L180.60547 140.88672L180.60547 155.33203C 180.60547 158.23438 178.91797 159.78906 176.6875 159.78906C 174.39453 159.78906 172.91016 158.23438 172.91016 155.33203L172.91016 155.33203L172.91016 140.88672L163.52734 140.88672L163.52734 158.30078C 163.52734 164.3789 166.96875 168.15625 172.64062 168.15625z" stroke="none" fill="#999" fill-rule="nonzero" />
                        <path d="M145.4375 168.15625C 154.00781 168.15625 160.21875 161.8125 160.21875 154.1836L160.21875 154.1836L160.21875 154.11719C 160.21875 146.5586 154.07812 140.28125 145.5039 140.28125C 137 140.28125 130.78906 146.625 130.78906 154.2539L130.78906 154.2539L130.78906 154.32031C 130.78906 161.94922 137 168.15625 145.4375 168.15625zM145.57031 160.26172C 142.26562 160.26172 139.90234 157.49219 139.90234 154.2539L139.90234 154.2539L139.90234 154.1836C 139.90234 150.94531 142.0625 148.2461 145.4375 148.2461C 148.74219 148.2461 151.17188 151.01172 151.17188 154.32031L151.17188 154.32031L151.17188 154.38672C 151.17188 157.5586 148.94531 160.26172 145.57031 160.26172z" stroke="none" fill="#999" fill-rule="nonzero" />
                        <path d="M95.08203 167.55078L104.66797 167.55078L104.66797 154.45312L116.953125 154.45312L116.953125 167.55078L126.46875 167.55078L126.46875 133.0586L116.88281 133.0586L116.88281 145.94922L104.59766 145.94922L104.59766 133.0586L95.08203 133.0586L95.08203 167.55078z" stroke="none" fill="#999" fill-rule="nonzero" />
                </g>
        </g>
</svg>