<?xml version="1.0" standalone="no"?>
<!DOCTYPE svg PUBLIC "-//W3C//DTD SVG 1.0//EN" "http://www.w3.org/TR/2001/REC-SVG-20010904/DTD/svg10.dtd">
<svg xmlns="http://www.w3.org/2000/svg" xmlns:xlink="http://www.w3.org/1999/xlink" id="body_1" width="48" height="34">

<g transform="matrix(0.5 0 0 0.5 0 0)">
	<g transform="matrix(0.4821977 0 0 0.4821977 0.27400273 -0)">
        <path d="M0.746 3.343L30.806 3.343L30.806 84.017006C 30.806 96.784004 36.646 104.38901 41.264 107.649C 36.375 111.995 21.435 115.798004 10.298 106.562004C 3.7320004 101.118004 0.7460003 92.166 0.7460003 83.745L0.7460003 83.745L0.746 3.343zM188.60901 70.357L188.60901 61.879L197.77701 61.879L197.77701 32.136L187.70901 32.136C 183.84401 14.279001 167.94601 0.8980007 148.93301 0.8980007C 127.030014 0.8980007 109.27501 18.654001 109.27501 40.556L109.27501 40.556L109.27501 110.015C 115.51501 110.892 122.949005 109.906 129.27402 104.660995C 135.83902 99.215996 138.82501 90.265 138.82501 81.843994L138.82501 81.843994L138.82501 79.284996L153.83801 79.284996L153.83801 49.541996L138.82501 49.541996L138.82501 40.555996L138.86101 40.555996C 138.86101 34.993996 143.37001 30.484997 148.93301 30.484997C 154.49501 30.484997 159.02202 34.993996 159.02202 40.555996L159.02202 40.555996L159.02202 70.356995C 159.02202 92.258995 176.79602 110.015 198.69801 110.015L198.69801 110.015L198.69801 80.428C 193.13602 80.428 188.60901 75.919 188.60901 70.357zM74.76101 32.136L74.76101 75.787C 74.76101 78.265 72.70501 80.274 70.16801 80.274C 67.631004 80.274 65.575005 78.265 65.575005 75.787L65.575005 75.787L65.575005 32.136L35.831005 32.136L35.831005 83.474C 35.831005 92.709 38.963005 104.389 53.216003 108.192C 67.484 111.999 75.761 104.118004 75.761 104.118004C 75.007 109.310005 70.117004 113.11301 62.24 113.928C 56.280003 114.544 48.658 112.57 44.856003 110.94L44.856003 110.94L44.856003 138.139C 54.544003 140.996 64.791 141.919 74.819 139.973C 93.018 136.442 104.504 121.231 104.504 100.994L104.504 100.994L104.504 32.136z" stroke="none" fill="#999999" fill-rule="nonzero" />
	</g>
</g>
</svg>