<?xml version="1.0" encoding="UTF-8"?>
<svg xmlns="http://www.w3.org/2000/svg" xmlns:xlink="http://www.w3.org/1999/xlink" width="px" height="px" viewBox="0 0 384 384" version="1.1">
<g id="surface1">
<path style=" stroke:none;fill-rule:nonzero;fill:rgb(100%,100%,100%);fill-opacity:1;" d="M 57.601562 0 L 326.398438 0 C 358.210938 0 384 25.789062 384 57.601562 L 384 326.398438 C 384 358.210938 358.210938 384 326.398438 384 L 57.601562 384 C 25.789062 384 0 358.210938 0 326.398438 L 0 57.601562 C 0 25.789062 25.789062 0 57.601562 0 Z M 57.601562 0 "/>
<path style=" stroke:none;fill-rule:nonzero;fill:rgb(94.901961%,31.372549%,13.333333%);fill-opacity:1;" d="M 56.25 56.25 L 56.25 184.5 L 184.5 184.5 L 184.5 56.25 Z M 56.25 56.25 "/>
<path style=" stroke:none;fill-rule:nonzero;fill:rgb(49.803922%,72.941176%,0%);fill-opacity:1;" d="M 199.5 56.25 L 199.5 184.5 L 327.75 184.5 L 327.75 56.25 Z M 199.5 56.25 "/>
<path style=" stroke:none;fill-rule:nonzero;fill:rgb(0%,64.313725%,93.72549%);fill-opacity:1;" d="M 56.25 199.5 L 56.25 327.75 L 184.5 327.75 L 184.5 199.5 Z M 56.25 199.5 "/>
<path style=" stroke:none;fill-rule:nonzero;fill:rgb(100%,72.54902%,0%);fill-opacity:1;" d="M 199.5 199.5 L 199.5 327.75 L 327.75 327.75 L 327.75 199.5 Z M 199.5 199.5 "/>
</g>
</svg>
