<?xml version="1.0" standalone="no"?>
<!DOCTYPE svg PUBLIC "-//W3C//DTD SVG 1.0//EN" "http://www.w3.org/TR/2001/REC-SVG-20010904/DTD/svg10.dtd">
<svg xmlns="http://www.w3.org/2000/svg" xmlns:xlink="http://www.w3.org/1999/xlink" id="body_1" width="96" height="22">

	<g transform="matrix(0.12002852 0 0 0.12002852 -0 0.019192182)">
		<g>
			<path d="M88.56 28.51L88.56 45.98L17.14 45.98L17.14 165.97L137.85 165.97L137.85 94.71L154.90001 94.71L154.90001 182.98L0.1 182.98L0.1 28.51L88.56 28.51zM154.9 0.01L154.9 28.51L183.45999 28.51L183.45999 45.98L154.9 45.98L154.9 74.479996L137.84999 74.479996L137.84999 45.979996L108.82999 45.979996L108.82999 28.51L137.84999 28.51L137.84999 0.01zM71.05 142.98L71.05 94.71L54.92 94.71L54.92 82.3L56.769997 82.3C 61.829998 82.3 65.979996 81.380005 68.75 79.08C 71.51 76.78 73.35 72.65 73.35 67.590004L73.35 67.590004L88.56 67.590004L88.56 142.98001zM203.74 106.21C 203.74 79.08 220.78 58.85 247.5 58.85C 274.23 58.85 291.27 79.08 291.27 106.21C 291.27 133.33 274.22998 153.1 247.49998 153.1C 220.77998 153.1 203.73999 133.33 203.73999 106.21001zM272.38 106.21C 272.38 88.28 264.09 74.020004 247.5 74.020004C 230.92 74.020004 222.16 88.28001 222.16 106.21001C 222.16 124.14001 230.46 138.39001 247.5 138.39001C 264.55 137.93001 272.38 124.140015 272.38 106.210014zM306.94 60.69L325.83002 60.69L356.23 111.259995C 359 116.31999 362.68002 124.13999 362.68002 124.13999L362.68002 124.13999L363.14 124.13999C 363.14 124.13999 362.68002 114.939995 362.68002 108.49999L362.68002 108.49999L362.68002 60.69L380.65002 60.69L380.65002 151.26L362.68002 151.26L331.35004 101.149994C 328.59003 96.549995 324.90002 88.73999 324.90002 88.73999L324.90002 88.73999L324.44003 88.73999C 324.44003 88.73999 324.90002 98.38999 324.90002 104.36999L324.90002 104.36999L324.90002 151.25998L306.94003 151.25998zM400.92 60.69L467.73 60.69L467.73 75.86L419.35 75.86L419.35 96.09L461.74 96.09L461.74 111.259995L419.34998 111.259995L419.34998 135.62999L468.18997 135.62999L468.18997 151.26L400.91998 151.26zM526.24 60.69C 536.83997 60.69 544.67 63.91 550.2 68.97C 555.26 74.020004 558.49 81.380005 558.49 89.66C 558.49 106.670006 546.97 118.16 528.08 118.16L528.08 118.16L505.97003 118.16L505.97003 150.8L487.08002 150.8L487.08002 60.69zM505.05 103.45L523.94 103.45C 533.61 103.45 538.68 97.93 538.68 90.119995C 538.68 81.84 533.14996 76.78 524.39996 76.78L524.39996 76.78L505.04996 76.78zM571.39 60.69L589.82 60.69L589.82 135.63L632.2 135.63L632.2 151.26001L571.39 151.26001zM642.34 60.69L660.77 60.69L660.77 122.3C 660.77 131.49 665.38 138.39 677.82 138.39C 689.33 138.39 694.86 131.49 694.86 122.3L694.86 122.3L694.86 60.69L713.29 60.69L713.29 122.3C 713.29 141.6 701.31 153.1 678.27997 153.1C 654.31995 152.64 642.33997 141.6 642.33997 121.840004zM744.16003 123.22C 745.54004 134.25 751.53 138.39 764.43005 138.39C 773.6401 138.39 781.94006 135.17 781.94006 126.89C 781.94006 118.16 773.18005 116.32 759.36005 113.1C 743.24005 109.42 728.03 105.29 728.03 86.44C 728.03 68.51 742.78 59.310005 762.59 59.310005C 782.86005 59.310005 796.22003 69.43001 797.60004 87.36L797.60004 87.36L780.09 87.36C 779.17004 78.16 771.80005 73.56 762.59 73.56C 752.91003 73.56 746 77.7 746 84.14C 746 91.49 752.45 93.79 765.81 96.55C 784.7 100.69 799.91 104.83 799.91 124.590004C 799.91 142.98001 785.16 153.1 764.43 153.1C 740.47 153.1 726.65 142.06001 726.19 123.22001z" stroke="none" fill="#999" fill-rule="nonzero" />
		</g>
	</g>
</svg>